<svg width="118" height="63" viewBox="0 0 118 63" fill="none" xmlns="http://www.w3.org/2000/svg">
<rect x="1" y="1" width="116" height="61" rx="4" stroke="#CCCCCC" stroke-width="2"/>
<path d="M57.6336 44.1085C57.7539 44.2073 57.8851 44.314 58.007 44.4112C55.5585 46.0529 52.6131 47 49.4552 47C40.9174 47 34 40.0677 34 31.5C34 22.9401 40.9174 16 49.4458 16C52.6131 16 55.5585 16.9471 58.0007 18.5794C57.8773 18.686 57.7554 18.7927 57.657 18.8993C54.0053 22.0667 51.9052 26.6658 51.9052 31.5C51.9052 36.3342 53.9975 40.9333 57.6351 44.1085H57.6336ZM68.5558 16C65.3807 16 62.4431 16.9471 60.0008 18.5794C60.1243 18.686 60.2461 18.7927 60.3446 18.8993C63.9963 22.0667 66.0963 26.6658 66.0963 31.5C66.0963 36.328 64.0041 40.9254 60.3664 44.1085C60.2461 44.2073 60.1149 44.314 59.993 44.4112C62.4415 46.0529 65.3791 47 68.5448 47C77.0826 47 84 40.0677 84 31.5C84 22.9401 77.0842 16 68.5558 16ZM59.0008 19.3242C58.7961 19.4795 58.6086 19.6331 58.4148 19.8056C55.1585 22.6485 53.1006 26.8304 53.1006 31.5016C53.1006 36.1727 55.1585 40.3531 58.4148 43.1975C58.6023 43.3684 58.8039 43.5315 59.0008 43.6867C59.2055 43.5315 59.393 43.3684 59.5867 43.1975C62.8431 40.3547 64.901 36.1727 64.901 31.5016C64.901 26.8304 62.8431 22.65 59.5867 19.8056C59.3992 19.6347 59.2055 19.4795 59.0008 19.3242Z" fill="#BABABA"/>
</svg>
