<svg width="118" height="63" viewBox="0 0 118 63" fill="none" xmlns="http://www.w3.org/2000/svg">
<rect x="1" y="1" width="116" height="61" rx="4" stroke="#CCCCCC" stroke-width="2"/>
<path d="M74.6644 31.3494V42.6818H80.9602V35.9663H88.0955C91.0965 35.9453 93.6463 34.0251 94.6117 31.3494H74.6644Z" fill="#BABABA"/>
<path d="M73.8251 22.0107C74.1923 26.6382 78.5784 30.3002 83.9299 30.3002C83.9509 30.3002 94.8741 30.3002 94.8741 30.3002C94.958 29.8805 95 29.4398 95 28.9886C95 25.1482 91.9046 22.0422 88.0746 22.0107H73.8251Z" fill="#BABABA"/>
<path d="M64.5072 30.1848C64.5807 30.0589 64.6961 29.9854 64.843 29.9854C65.0529 29.9854 65.2103 30.1533 65.2208 30.3527V42.5771H71.5166V22.0107H65.2208C64.4233 22.0422 63.5209 22.6193 63.1851 23.3434L58.1799 34.0882C58.1695 34.1302 58.1485 34.1722 58.1275 34.2141C58.054 34.3191 57.9281 34.3925 57.7812 34.3925C57.5504 34.3925 57.3615 34.2036 57.3615 33.9728V22.0107H51.0657V42.5771H57.3615C58.1485 42.5351 59.0299 41.958 59.3657 41.2445L64.5072 30.2163C64.4967 30.2058 64.5072 30.1953 64.5072 30.1848Z" fill="#BABABA"/>
<path d="M41.0029 30.5413L37.3198 42.5768H32.7868L29.1143 30.5308C29.0828 30.342 28.9149 30.1951 28.705 30.1951C28.4742 30.1951 28.2958 30.3839 28.2958 30.6043V42.5663H22V22H27.4039H29.0093C30.1636 22 31.3808 22.9024 31.7165 24.0042L34.7805 34.025C34.9379 34.5287 35.1792 34.5182 35.3366 34.025L38.4006 24.0042C38.7364 22.8919 39.9536 22 41.1078 22H42.7132H48.1171V42.5663H41.8213V30.6043C41.8213 30.6043 41.8213 30.6043 41.8213 30.5938C41.8213 30.3629 41.6325 30.1846 41.4121 30.1846C41.2022 30.1951 41.0344 30.342 41.0029 30.5413Z" fill="#BABABA"/>
</svg>
