<svg width="118" height="63" viewBox="0 0 118 63" fill="none" xmlns="http://www.w3.org/2000/svg">
<rect x="1" y="1" width="116" height="61" rx="4" stroke="#CCCCCC" stroke-width="2"/>
<path d="M75.5206 21.9831C73.7776 21.3199 71.9352 20.9871 70.0801 21.0004C64.081 21.0004 59.8442 24.156 59.8142 28.6857C59.7767 32.0136 62.825 33.8889 65.1309 35.0008C67.4968 36.144 68.2879 36.8644 68.2804 37.8862C68.2654 39.4405 66.3907 40.1453 64.6472 40.1453C62.2513 40.1453 60.9428 39.7968 58.9293 38.9237L58.1832 38.5596L57.3321 43.7746C58.7906 44.4088 61.4189 44.953 64.1335 45C70.5113 45 74.6807 41.864 74.7294 37.0445C74.7819 34.3861 73.1322 32.3777 69.6602 30.7177C67.5493 29.641 66.2407 28.9206 66.2407 27.8283C66.2407 26.8613 67.3618 25.8277 69.7052 25.8277C71.2648 25.7883 72.8148 26.0939 74.2533 26.7243L74.8157 26.9866L75.6668 21.9478L75.5206 21.9831ZM91.0882 21.4232H86.4014C84.9429 21.4232 83.8443 21.8421 83.2069 23.3534L74.1933 44.675H80.5711L81.8459 41.1789L89.6297 41.1867C89.8134 42.0049 90.3758 44.675 90.3758 44.675H96L91.0882 21.4232ZM51.1867 21.2275H57.2646L53.4626 44.491H47.3923L51.1867 21.2196V21.2275ZM35.7578 34.0494L36.3877 37.2794L42.3268 21.4232H48.7646L39.1998 44.6437H32.777L27.5278 24.982C27.4428 24.6578 27.2431 24.3794 26.9691 24.2029C25.0771 23.1824 23.0725 22.408 21 21.8969L21.0825 21.4076H30.8648C32.1921 21.4624 33.2607 21.8969 33.6169 23.3769L35.754 34.0612L35.7578 34.0494ZM83.5894 36.422L86.0115 29.9151C85.9815 29.9856 86.5102 28.5722 86.8176 27.6991L87.2338 29.7076L88.6399 36.4181H83.5856L83.5894 36.422Z" fill="#BABABA"/>
</svg>
