<svg width="287" height="73" viewBox="0 0 287 73" fill="none" xmlns="http://www.w3.org/2000/svg">
<path d="M36.3394 72.6788C56.4091 72.6788 72.6788 56.4091 72.6788 36.3394C72.6788 16.2697 56.4091 0 36.3394 0C16.2697 0 0 16.2697 0 36.3394C0 56.4091 16.2697 72.6788 36.3394 72.6788Z" fill="#0195DB"/>
<mask id="mask0_69_13" style="mask-type:alpha" maskUnits="userSpaceOnUse" x="7" y="9" width="58" height="56">
<path d="M21.1648 16.3726C21.4127 14.3759 22.7622 12.3792 27.9537 9.18457C25.957 11.5806 27.5543 13.5772 29.551 14.7753C31.1483 15.7337 33.9202 16.3666 37.5377 16.3726C40.6319 16.3777 44.1138 16.2259 46.323 15.1746C48.248 14.2585 48.719 13.5772 49.5177 11.1812C57.9037 15.1746 60.6991 21.1646 61.8971 23.96C55.9071 27.9533 49.4694 30.3312 42.0819 29.95C34.343 29.5506 27.1549 26.7553 23.9602 23.96C22.1346 22.3626 20.6692 20.3659 21.1648 16.3726Z" fill="#D9D9D9"/>
<path d="M10.3827 47.9201C7.82567 42.8061 5.98997 31.9467 11.9801 21.9634C9.98344 30.7487 10.8891 39.6437 15.3262 45.1248C22.115 53.5108 31.2998 57.1048 40.8837 58.7021C38.0884 60.6988 33.9434 63.8935 31.1481 64.2928C24.3594 62.6955 15.9734 59.1015 10.3827 47.9201Z" fill="#D9D9D9"/>
<path d="M18.3694 14.376C13.9767 18.3694 12.7787 22.3627 13.178 31.5474C13.3778 36.1423 18.9091 44.7254 23.7123 47.5208C34.1015 53.5671 39.4948 54.1236 48.8703 53.5108C56.4577 53.0149 58.3028 51.5141 61.0982 49.9168C65.0915 43.5274 65.4908 34.7421 63.8935 29.5507C55.5075 35.1414 46.075 35.9401 33.6956 34.3427C29.7023 33.1447 24.3437 31.3802 19.7189 26.7554C16.9236 23.96 16.3727 19.9667 18.3694 14.376Z" fill="#D9D9D9"/>
</mask>
<g mask="url(#mask0_69_13)">
<path d="M69.4842 8.78516H-46.3228V117.404H69.4842V8.78516Z" fill="url(#paint0_radial_69_13)"/>
</g>
<path d="M89.8965 36.9998V15.1816H98.6323C100.237 15.1816 101.576 15.4195 102.648 15.8954C103.721 16.3712 104.527 17.0318 105.067 17.8769C105.607 18.715 105.876 19.6809 105.876 20.7747C105.876 21.6269 105.706 22.3762 105.365 23.0225C105.024 23.6617 104.555 24.1873 103.959 24.5992C103.369 25.0041 102.695 25.2917 101.935 25.4622V25.6752C102.766 25.7107 103.543 25.9451 104.268 26.3784C104.999 26.8116 105.592 27.4188 106.047 28.2001C106.501 28.9742 106.729 29.8975 106.729 30.97C106.729 32.1276 106.441 33.161 105.866 34.0701C105.298 34.9721 104.456 35.6859 103.341 36.2114C102.226 36.737 100.852 36.9998 99.2182 36.9998H89.8965ZM94.5094 33.2285H98.2701C99.5556 33.2285 100.493 32.9835 101.082 32.4934C101.672 31.9962 101.967 31.3357 101.967 30.5119C101.967 29.9082 101.821 29.3755 101.53 28.9139C101.239 28.4522 100.823 28.09 100.283 27.8272C99.7509 27.5644 99.1153 27.433 98.3766 27.433H94.5094V33.2285ZM94.5094 24.3116H97.9292C98.5613 24.3116 99.1224 24.2015 99.6124 23.9813C100.109 23.7541 100.5 23.4345 100.784 23.0225C101.075 22.6106 101.221 22.117 101.221 21.5417C101.221 20.7534 100.94 20.1177 100.379 19.6347C99.8255 19.1518 99.0371 18.9103 98.0144 18.9103H94.5094V24.3116ZM117.039 37.3194C115.384 37.3194 113.953 36.9678 112.745 36.2647C111.545 35.5545 110.618 34.5673 109.965 33.3031C109.311 32.0318 108.985 30.558 108.985 28.8819C108.985 27.1916 109.311 25.7143 109.965 24.4501C110.618 23.1788 111.545 22.1916 112.745 21.4884C113.953 20.7782 115.384 20.4231 117.039 20.4231C118.693 20.4231 120.121 20.7782 121.321 21.4884C122.529 22.1916 123.459 23.1788 124.112 24.4501C124.766 25.7143 125.093 27.1916 125.093 28.8819C125.093 30.558 124.766 32.0318 124.112 33.3031C123.459 34.5673 122.529 35.5545 121.321 36.2647C120.121 36.9678 118.693 37.3194 117.039 37.3194ZM117.06 33.8038C117.813 33.8038 118.441 33.5907 118.945 33.1646C119.45 32.7313 119.83 32.1418 120.085 31.3961C120.348 30.6504 120.48 29.8016 120.48 28.8499C120.48 27.8982 120.348 27.0495 120.085 26.3038C119.83 25.558 119.45 24.9685 118.945 24.5353C118.441 24.1021 117.813 23.8855 117.06 23.8855C116.3 23.8855 115.661 24.1021 115.142 24.5353C114.631 24.9685 114.244 25.558 113.981 26.3038C113.725 27.0495 113.597 27.8982 113.597 28.8499C113.597 29.8016 113.725 30.6504 113.981 31.3961C114.244 32.1418 114.631 32.7313 115.142 33.1646C115.661 33.5907 116.3 33.8038 117.06 33.8038ZM128.044 36.9998V20.6362H132.582V26.9856H133.86L138.313 20.6362H143.64L137.855 28.7541L143.704 36.9998H138.313L134.276 31.1937H132.582V36.9998H128.044ZM145.622 43.1362V20.6362H150.096V23.3847H150.298C150.497 22.9444 150.785 22.497 151.161 22.0424C151.545 21.5808 152.042 21.1972 152.653 20.8918C153.271 20.5793 154.038 20.4231 154.954 20.4231C156.147 20.4231 157.248 20.7356 158.257 21.3606C159.265 21.9785 160.071 22.9124 160.675 24.1624C161.279 25.4053 161.58 26.9643 161.58 28.8393C161.58 30.6646 161.286 32.2058 160.696 33.4629C160.114 34.7129 159.318 35.661 158.31 36.3073C157.308 36.9465 156.186 37.2661 154.943 37.2661C154.063 37.2661 153.313 37.1205 152.695 36.8293C152.085 36.5382 151.584 36.1724 151.193 35.732C150.803 35.2846 150.504 34.8336 150.298 34.3791H150.16V43.1362H145.622ZM150.064 28.818C150.064 29.791 150.199 30.6397 150.469 31.3641C150.739 32.0886 151.129 32.6532 151.641 33.058C152.152 33.4558 152.774 33.6546 153.505 33.6546C154.244 33.6546 154.869 33.4522 155.38 33.0474C155.892 32.6355 156.279 32.0673 156.541 31.3428C156.811 30.6113 156.946 29.7697 156.946 28.818C156.946 27.8734 156.815 27.0424 156.552 26.3251C156.289 25.6078 155.902 25.0467 155.391 24.6418C154.879 24.237 154.251 24.0346 153.505 24.0346C152.767 24.0346 152.142 24.2299 151.63 24.6205C151.126 25.0112 150.739 25.5651 150.469 26.2825C150.199 26.9998 150.064 27.845 150.064 28.818ZM166.881 43.1362C166.305 43.1362 165.765 43.09 165.261 42.9977C164.764 42.9124 164.352 42.8024 164.025 42.6674L165.048 39.2796C165.581 39.443 166.06 39.5318 166.486 39.546C166.92 39.5602 167.292 39.4607 167.605 39.2477C167.925 39.0346 168.184 38.6724 168.383 38.161L168.649 37.4686L162.779 20.6362H167.552L170.939 32.6532H171.11L174.53 20.6362H179.334L172.974 38.7683C172.669 39.6489 172.253 40.416 171.728 41.0694C171.209 41.7299 170.552 42.2377 169.757 42.5928C168.961 42.9551 168.003 43.1362 166.881 43.1362ZM192.864 20.6362V24.2051H186.067V36.9998H181.657V20.6362H192.864ZM209.968 37.3194C208.292 37.3194 206.85 36.9643 205.643 36.2541C204.443 35.5367 203.519 34.5424 202.873 33.2711C202.234 31.9998 201.914 30.5367 201.914 28.8819C201.914 27.2058 202.237 25.7356 202.884 24.4714C203.537 23.2001 204.464 22.2093 205.664 21.4991C206.865 20.7818 208.292 20.4231 209.947 20.4231C211.374 20.4231 212.624 20.6823 213.697 21.2008C214.769 21.7193 215.618 22.4472 216.243 23.3847C216.868 24.3222 217.213 25.4231 217.276 26.6873H212.994C212.873 25.8705 212.553 25.2136 212.035 24.7164C211.524 24.2122 210.852 23.96 210.021 23.96C209.318 23.96 208.704 24.1518 208.178 24.5353C207.66 24.9117 207.255 25.4622 206.964 26.1866C206.673 26.911 206.527 27.7882 206.527 28.818C206.527 29.862 206.669 30.7498 206.953 31.4813C207.244 32.2129 207.653 32.7704 208.178 33.1539C208.704 33.5374 209.318 33.7292 210.021 33.7292C210.54 33.7292 211.005 33.6227 211.417 33.4096C211.836 33.1965 212.181 32.8876 212.45 32.4828C212.727 32.0708 212.909 31.5772 212.994 31.0019H217.276C217.205 32.2519 216.865 33.3528 216.254 34.3045C215.65 35.2491 214.816 35.9877 213.75 36.5204C212.685 37.0531 211.424 37.3194 209.968 37.3194ZM220.182 36.9998V20.6362H227.16C229.177 20.6362 230.772 21.0197 231.944 21.7867C233.115 22.5538 233.701 23.644 233.701 25.0573C233.701 25.9451 233.371 26.6837 232.711 27.2732C232.05 27.8627 231.134 28.2605 229.962 28.4664C230.942 28.5374 231.777 28.7612 232.466 29.1376C233.162 29.5069 233.691 29.9863 234.053 30.5758C234.422 31.1653 234.607 31.8187 234.607 32.536C234.607 33.4664 234.358 34.2654 233.861 34.933C233.371 35.6007 232.65 36.112 231.699 36.4671C230.754 36.8222 229.6 36.9998 228.236 36.9998H220.182ZM224.412 33.6014H228.236C228.868 33.6014 229.362 33.4522 229.717 33.1539C230.079 32.8485 230.26 32.433 230.26 31.9075C230.26 31.3251 230.079 30.867 229.717 30.5332C229.362 30.1994 228.868 30.0325 228.236 30.0325H224.412V33.6014ZM224.412 27.3691H227.256C227.711 27.3691 228.098 27.3052 228.417 27.1774C228.744 27.0424 228.993 26.8507 229.163 26.6021C229.341 26.3535 229.429 26.0587 229.429 25.7178C229.429 25.2136 229.227 24.8194 228.822 24.5353C228.417 24.2512 227.863 24.1092 227.16 24.1092H224.412V27.3691ZM244.925 37.3194C243.241 37.3194 241.793 36.9785 240.578 36.2967C239.371 35.6078 238.44 34.6347 237.787 33.3776C237.134 32.1134 236.807 30.6184 236.807 28.8926C236.807 27.2093 237.134 25.732 237.787 24.4607C238.44 23.1894 239.36 22.1987 240.546 21.4884C241.739 20.7782 243.138 20.4231 244.744 20.4231C245.823 20.4231 246.828 20.5971 247.759 20.9451C248.696 21.286 249.513 21.8009 250.209 22.4899C250.912 23.1788 251.459 24.0453 251.849 25.0893C252.24 26.1262 252.435 27.3407 252.435 28.7328V29.9792H238.618V27.1667H248.163C248.163 26.5133 248.021 25.9345 247.737 25.4302C247.453 24.9259 247.059 24.5318 246.555 24.2477C246.058 23.9565 245.479 23.8109 244.818 23.8109C244.129 23.8109 243.518 23.9707 242.986 24.2903C242.46 24.6028 242.048 25.0254 241.75 25.558C241.452 26.0836 241.299 26.6695 241.292 27.3159V29.9899C241.292 30.7995 241.441 31.4991 241.739 32.0886C242.045 32.6781 242.474 33.1326 243.028 33.4522C243.582 33.7718 244.239 33.9316 244.999 33.9316C245.504 33.9316 245.965 33.8606 246.384 33.7186C246.803 33.5765 247.162 33.3634 247.46 33.0793C247.759 32.7953 247.986 32.4472 248.142 32.0353L252.339 32.3123C252.126 33.3208 251.69 34.2015 251.029 34.9543C250.376 35.7001 249.531 36.2825 248.494 36.7015C247.464 37.1134 246.274 37.3194 244.925 37.3194ZM254.135 24.2051V20.6362H268.964V24.2051H263.691V36.9998H259.365V24.2051H254.135ZM275.796 37.3087C274.752 37.3087 273.821 37.1276 273.004 36.7654C272.188 36.3961 271.541 35.8528 271.066 35.1355C270.597 34.411 270.362 33.509 270.362 32.4295C270.362 31.5204 270.529 30.7569 270.863 30.139C271.197 29.5211 271.651 29.0239 272.227 28.6475C272.802 28.2711 273.455 27.987 274.187 27.7953C274.926 27.6035 275.7 27.4686 276.509 27.3904C277.461 27.291 278.228 27.1987 278.811 27.1134C279.393 27.0211 279.816 26.8862 280.078 26.7086C280.341 26.531 280.472 26.2683 280.472 25.9203V25.8563C280.472 25.1816 280.259 24.6596 279.833 24.2903C279.414 23.921 278.818 23.7363 278.044 23.7363C277.227 23.7363 276.577 23.9174 276.094 24.2796C275.611 24.6347 275.291 25.0822 275.135 25.622L270.938 25.281C271.151 24.2867 271.57 23.4274 272.195 22.7029C272.82 21.9714 273.626 21.4103 274.613 21.0197C275.607 20.622 276.758 20.4231 278.065 20.4231C278.974 20.4231 279.844 20.5296 280.675 20.7427C281.513 20.9558 282.255 21.286 282.901 21.7335C283.555 22.1809 284.07 22.7562 284.446 23.4593C284.823 24.1553 285.011 24.9899 285.011 25.9629V36.9998H280.707V34.7306H280.579C280.316 35.242 279.965 35.693 279.524 36.0836C279.084 36.4671 278.555 36.769 277.937 36.9891C277.319 37.2022 276.605 37.3087 275.796 37.3087ZM277.095 34.1766C277.763 34.1766 278.352 34.0453 278.864 33.7825C279.375 33.5126 279.776 33.1504 280.068 32.6958C280.359 32.2413 280.504 31.7264 280.504 31.1511V29.4146C280.362 29.5069 280.167 29.5921 279.919 29.6703C279.677 29.7413 279.404 29.8087 279.098 29.8727C278.793 29.9295 278.487 29.9828 278.182 30.0325C277.877 30.0751 277.6 30.1141 277.351 30.1497C276.818 30.2278 276.353 30.3521 275.955 30.5225C275.558 30.693 275.249 30.9238 275.029 31.215C274.808 31.4991 274.698 31.8542 274.698 32.2803C274.698 32.8982 274.922 33.3705 275.369 33.6972C275.824 34.0168 276.399 34.1766 277.095 34.1766Z" fill="white"/>
<path d="M89.6818 50.9901V49.8182H96.3295V50.9901H93.6449V58H92.3878V50.9901H89.6818ZM99.4229 61.0682C99.2099 61.0682 99.0199 61.0504 98.853 61.0149C98.6861 60.983 98.5706 60.951 98.5067 60.919L98.8263 59.8111C99.1317 59.8892 99.4016 59.9176 99.636 59.8963C99.8704 59.875 100.078 59.7702 100.259 59.582C100.444 59.3974 100.613 59.0973 100.765 58.6818L101 58.0426L97.9741 49.8182H99.3377L101.596 56.3381H101.681L103.94 49.8182H105.304L101.831 59.1932C101.674 59.6158 101.481 59.9656 101.25 60.2425C101.019 60.5231 100.751 60.7308 100.446 60.8658C100.144 61.0007 99.8029 61.0682 99.4229 61.0682ZM107.413 61.0682V49.8182H108.627V51.1179H108.777C108.869 50.9759 108.997 50.7947 109.16 50.5746C109.327 50.3509 109.565 50.152 109.874 49.978C110.186 49.8004 110.609 49.7116 111.142 49.7116C111.83 49.7116 112.438 49.8839 112.963 50.2283C113.489 50.5728 113.899 51.0611 114.194 51.6932C114.489 52.3253 114.636 53.071 114.636 53.9304C114.636 54.7969 114.489 55.5479 114.194 56.1836C113.899 56.8157 113.491 57.3058 112.969 57.6538C112.447 57.9982 111.845 58.1705 111.163 58.1705C110.637 58.1705 110.216 58.0835 109.9 57.9094C109.584 57.7319 109.341 57.5312 109.171 57.3075C109 57.0803 108.869 56.892 108.777 56.7429H108.67V61.0682H107.413ZM108.649 53.9091C108.649 54.527 108.739 55.0721 108.92 55.5444C109.101 56.0131 109.366 56.3807 109.714 56.647C110.062 56.9098 110.488 57.0412 110.992 57.0412C111.518 57.0412 111.957 56.9027 112.308 56.6257C112.663 56.3452 112.93 55.9687 113.107 55.4964C113.288 55.0206 113.379 54.4915 113.379 53.9091C113.379 53.3338 113.29 52.8153 113.112 52.3537C112.938 51.8885 112.674 51.521 112.319 51.2511C111.967 50.9776 111.525 50.8409 110.992 50.8409C110.481 50.8409 110.051 50.9705 109.703 51.2298C109.355 51.4854 109.093 51.8441 108.915 52.3058C108.737 52.7638 108.649 53.2983 108.649 53.9091ZM118.261 56.1463L122.202 49.8182H123.651V58H122.394V51.6719L118.474 58H117.003V49.8182H118.261V56.1463ZM129.728 58.1705C128.961 58.1705 128.3 57.9893 127.746 57.6271C127.192 57.2649 126.766 56.766 126.468 56.1303C126.169 55.4947 126.02 54.7685 126.02 53.9517C126.02 53.1207 126.173 52.3874 126.478 51.7518C126.787 51.1126 127.217 50.6136 127.767 50.255C128.321 49.8928 128.968 49.7116 129.706 49.7116C130.282 49.7116 130.8 49.8182 131.262 50.0312C131.723 50.2443 132.101 50.5426 132.396 50.9261C132.691 51.3097 132.874 51.7571 132.945 52.2685H131.688C131.592 51.8956 131.379 51.5653 131.049 51.2777C130.722 50.9865 130.282 50.8409 129.728 50.8409C129.237 50.8409 128.808 50.9687 128.438 51.2244C128.073 51.4766 127.787 51.8335 127.581 52.2951C127.378 52.7532 127.277 53.2912 127.277 53.9091C127.277 54.5412 127.377 55.0916 127.576 55.5604C127.778 56.0291 128.062 56.3931 128.428 56.6523C128.797 56.9116 129.23 57.0412 129.728 57.0412C130.054 57.0412 130.351 56.9844 130.617 56.8707C130.883 56.7571 131.109 56.5938 131.294 56.3807C131.478 56.1676 131.61 55.9119 131.688 55.6136H132.945C132.874 56.0966 132.698 56.5316 132.418 56.9187C132.141 57.3022 131.773 57.6076 131.315 57.8349C130.86 58.0586 130.331 58.1705 129.728 58.1705ZM134.588 50.9901V49.8182H141.236V50.9901H138.551V58H137.294V50.9901H134.588ZM144.777 56.1463L148.718 49.8182H150.167V58H148.91V51.6719L144.99 58H143.52V49.8182H144.777V56.1463ZM159.227 49.8182V58H157.969V49.8182H159.227ZM158.736 53.7173V54.8892C158.452 54.9957 158.17 55.0898 157.89 55.1715C157.609 55.2496 157.314 55.3118 157.005 55.358C156.696 55.4006 156.357 55.4219 155.988 55.4219C155.061 55.4219 154.317 55.1715 153.756 54.6708C153.198 54.1701 152.92 53.419 152.92 52.4176V49.7969H154.177V52.4176C154.177 52.8366 154.257 53.1811 154.417 53.451C154.576 53.7209 154.793 53.9215 155.066 54.0529C155.34 54.1843 155.647 54.25 155.988 54.25C156.521 54.25 157.002 54.2021 157.431 54.1062C157.865 54.0067 158.3 53.8771 158.736 53.7173ZM165.413 58.1705C164.625 58.1705 163.945 57.9964 163.373 57.6484C162.805 57.2969 162.367 56.8068 162.058 56.1783C161.752 55.5462 161.599 54.8111 161.599 53.973C161.599 53.1349 161.752 52.3963 162.058 51.7571C162.367 51.1143 162.796 50.6136 163.347 50.255C163.901 49.8928 164.547 49.7116 165.286 49.7116C165.712 49.7116 166.132 49.7827 166.548 49.9247C166.963 50.0668 167.342 50.2976 167.683 50.6172C168.023 50.9332 168.295 51.3523 168.498 51.8743C168.7 52.3963 168.801 53.0391 168.801 53.8026V54.3352H162.494V53.2486H167.523C167.523 52.7869 167.43 52.375 167.246 52.0128C167.065 51.6506 166.805 51.3647 166.468 51.1552C166.134 50.9457 165.74 50.8409 165.286 50.8409C164.785 50.8409 164.352 50.9652 163.986 51.2138C163.624 51.4588 163.345 51.7784 163.15 52.1726C162.954 52.5668 162.857 52.9893 162.857 53.4403V54.1648C162.857 54.7827 162.963 55.3065 163.176 55.7362C163.393 56.1623 163.693 56.4872 164.076 56.7109C164.46 56.9311 164.906 57.0412 165.413 57.0412C165.744 57.0412 166.042 56.995 166.308 56.9027C166.578 56.8068 166.811 56.6648 167.006 56.4766C167.201 56.2848 167.352 56.0469 167.459 55.7628L168.673 56.1037C168.545 56.5156 168.331 56.8778 168.029 57.1903C167.727 57.4993 167.354 57.7408 166.91 57.9148C166.466 58.0852 165.967 58.1705 165.413 58.1705ZM174.487 58.1705C173.72 58.1705 173.06 57.9893 172.506 57.6271C171.952 57.2649 171.526 56.766 171.227 56.1303C170.929 55.4947 170.78 54.7685 170.78 53.9517C170.78 53.1207 170.933 52.3874 171.238 51.7518C171.547 51.1126 171.977 50.6136 172.527 50.255C173.081 49.8928 173.727 49.7116 174.466 49.7116C175.041 49.7116 175.56 49.8182 176.021 50.0312C176.483 50.2443 176.861 50.5426 177.156 50.9261C177.451 51.3097 177.634 51.7571 177.705 52.2685H176.448C176.352 51.8956 176.139 51.5653 175.808 51.2777C175.482 50.9865 175.041 50.8409 174.487 50.8409C173.997 50.8409 173.568 50.9687 173.198 51.2244C172.832 51.4766 172.547 51.8335 172.341 52.2951C172.138 52.7532 172.037 53.2912 172.037 53.9091C172.037 54.5412 172.136 55.0916 172.335 55.5604C172.538 56.0291 172.822 56.3931 173.188 56.6523C173.557 56.9116 173.99 57.0412 174.487 57.0412C174.814 57.0412 175.111 56.9844 175.377 56.8707C175.643 56.7571 175.869 56.5938 176.053 56.3807C176.238 56.1676 176.369 55.9119 176.448 55.6136H177.705C177.634 56.0966 177.458 56.5316 177.177 56.9187C176.9 57.3022 176.533 57.6076 176.075 57.8349C175.62 58.0586 175.091 58.1705 174.487 58.1705ZM179.992 58V49.8182H181.249V53.3764H182.08L185.021 49.8182H186.64L183.338 53.7599L186.683 58H185.063L182.379 54.5483H181.249V58H179.992ZM190.907 58.1918C190.388 58.1918 189.918 58.0941 189.495 57.8988C189.073 57.6999 188.737 57.4141 188.488 57.0412C188.24 56.6648 188.115 56.2102 188.115 55.6776C188.115 55.2088 188.208 54.8288 188.392 54.5376C188.577 54.2429 188.824 54.0121 189.133 53.8452C189.442 53.6783 189.783 53.554 190.156 53.4723C190.532 53.3871 190.91 53.3196 191.29 53.2699C191.787 53.206 192.19 53.158 192.499 53.1261C192.812 53.0906 193.039 53.032 193.181 52.9503C193.327 52.8686 193.4 52.7266 193.4 52.5241V52.4815C193.4 51.956 193.256 51.5476 192.968 51.2564C192.684 50.9652 192.253 50.8196 191.674 50.8196C191.074 50.8196 190.603 50.951 190.262 51.2138C189.921 51.4766 189.682 51.7571 189.543 52.0554L188.35 51.6293C188.563 51.1321 188.847 50.745 189.202 50.468C189.561 50.1875 189.951 49.9922 190.374 49.8821C190.8 49.7685 191.219 49.7116 191.631 49.7116C191.894 49.7116 192.196 49.7436 192.537 49.8075C192.881 49.8679 193.213 49.994 193.533 50.1857C193.856 50.3775 194.124 50.6669 194.337 51.054C194.55 51.4411 194.657 51.9595 194.657 52.6094V58H193.4V56.892H193.336C193.25 57.0696 193.108 57.2596 192.91 57.462C192.711 57.6644 192.446 57.8366 192.116 57.9787C191.786 58.1207 191.383 58.1918 190.907 58.1918ZM191.098 57.0625C191.596 57.0625 192.015 56.9648 192.356 56.7695C192.7 56.5742 192.959 56.3221 193.133 56.0131C193.311 55.7042 193.4 55.3793 193.4 55.0384V53.8878C193.346 53.9517 193.229 54.0103 193.048 54.0636C192.87 54.1133 192.664 54.1577 192.43 54.1967C192.199 54.2322 191.974 54.2642 191.754 54.2926C191.537 54.3175 191.361 54.3388 191.226 54.3565C190.9 54.3991 190.594 54.4684 190.31 54.5643C190.03 54.6566 189.802 54.7969 189.628 54.9851C189.458 55.1697 189.373 55.4219 189.373 55.7415C189.373 56.1783 189.534 56.5085 189.857 56.7322C190.184 56.9524 190.598 57.0625 191.098 57.0625ZM202.323 58V50.9688H200.15C199.66 50.9688 199.274 51.0824 198.994 51.3097C198.713 51.5369 198.573 51.8494 198.573 52.2472C198.573 52.6378 198.699 52.945 198.951 53.1687C199.207 53.3924 199.557 53.5043 200.001 53.5043H202.643V54.6761H200.001C199.447 54.6761 198.969 54.5785 198.568 54.3832C198.166 54.1879 197.857 53.9091 197.641 53.5469C197.424 53.1811 197.316 52.7479 197.316 52.2472C197.316 51.7429 197.43 51.3097 197.657 50.9474C197.884 50.5852 198.209 50.3065 198.632 50.1112C199.058 49.9158 199.564 49.8182 200.15 49.8182H203.516V58H202.323ZM196.868 58L199.191 53.9304H200.555L198.232 58H196.868ZM210.943 58V49.8182H212.2V53.3764H213.031L215.971 49.8182H217.59L214.288 53.7599L217.633 58H216.014L213.329 54.5483H212.2V58H210.943ZM222.436 58.1705C221.698 58.1705 221.05 57.9947 220.492 57.6431C219.938 57.2915 219.505 56.7997 219.192 56.1676C218.883 55.5355 218.729 54.7969 218.729 53.9517C218.729 53.0994 218.883 52.3555 219.192 51.7198C219.505 51.0842 219.938 50.5906 220.492 50.239C221.05 49.8874 221.698 49.7116 222.436 49.7116C223.175 49.7116 223.821 49.8874 224.375 50.239C224.933 50.5906 225.366 51.0842 225.675 51.7198C225.987 52.3555 226.144 53.0994 226.144 53.9517C226.144 54.7969 225.987 55.5355 225.675 56.1676C225.366 56.7997 224.933 57.2915 224.375 57.6431C223.821 57.9947 223.175 58.1705 222.436 58.1705ZM222.436 57.0412C222.997 57.0412 223.459 56.8974 223.821 56.6097C224.184 56.3221 224.452 55.9439 224.626 55.4751C224.8 55.0064 224.887 54.4986 224.887 53.9517C224.887 53.4048 224.8 52.8952 224.626 52.4229C224.452 51.9506 224.184 51.5689 223.821 51.2777C223.459 50.9865 222.997 50.8409 222.436 50.8409C221.875 50.8409 221.414 50.9865 221.051 51.2777C220.689 51.5689 220.421 51.9506 220.247 52.4229C220.073 52.8952 219.986 53.4048 219.986 53.9517C219.986 54.4986 220.073 55.0064 220.247 55.4751C220.421 55.9439 220.689 56.3221 221.051 56.6097C221.414 56.8974 221.875 57.0412 222.436 57.0412ZM232.987 56.2955L235.842 49.8182H237.035L233.498 58H232.476L229.003 49.8182H230.175L232.987 56.2955ZM229.77 49.8182V58H228.513V49.8182H229.77ZM236.204 58V49.8182H237.462V58H236.204ZM240.213 58V49.8182H246.647V58H245.39V50.9901H241.47V58H240.213ZM251.801 58.1918C251.282 58.1918 250.812 58.0941 250.389 57.8988C249.967 57.6999 249.631 57.4141 249.382 57.0412C249.134 56.6648 249.01 56.2102 249.01 55.6776C249.01 55.2088 249.102 54.8288 249.287 54.5376C249.471 54.2429 249.718 54.0121 250.027 53.8452C250.336 53.6783 250.677 53.554 251.05 53.4723C251.426 53.3871 251.804 53.3196 252.184 53.2699C252.682 53.206 253.085 53.158 253.394 53.1261C253.706 53.0906 253.933 53.032 254.075 52.9503C254.221 52.8686 254.294 52.7266 254.294 52.5241V52.4815C254.294 51.956 254.15 51.5476 253.862 51.2564C253.578 50.9652 253.147 50.8196 252.568 50.8196C251.968 50.8196 251.497 50.951 251.156 51.2138C250.815 51.4766 250.576 51.7571 250.437 52.0554L249.244 51.6293C249.457 51.1321 249.741 50.745 250.096 50.468C250.455 50.1875 250.846 49.9922 251.268 49.8821C251.694 49.7685 252.113 49.7116 252.525 49.7116C252.788 49.7116 253.09 49.7436 253.431 49.8075C253.775 49.8679 254.107 49.994 254.427 50.1857C254.75 50.3775 255.018 50.6669 255.231 51.054C255.444 51.4411 255.551 51.9595 255.551 52.6094V58H254.294V56.892H254.23C254.145 57.0696 254.003 57.2596 253.804 57.462C253.605 57.6644 253.34 57.8366 253.01 57.9787C252.68 58.1207 252.277 58.1918 251.801 58.1918ZM251.993 57.0625C252.49 57.0625 252.909 56.9648 253.25 56.7695C253.594 56.5742 253.853 56.3221 254.027 56.0131C254.205 55.7042 254.294 55.3793 254.294 55.0384V53.8878C254.24 53.9517 254.123 54.0103 253.942 54.0636C253.765 54.1133 253.559 54.1577 253.324 54.1967C253.093 54.2322 252.868 54.2642 252.648 54.2926C252.431 54.3175 252.255 54.3388 252.12 54.3565C251.794 54.3991 251.488 54.4684 251.204 54.5643C250.924 54.6566 250.696 54.7969 250.522 54.9851C250.352 55.1697 250.267 55.4219 250.267 55.7415C250.267 56.1783 250.428 56.5085 250.751 56.7322C251.078 56.9524 251.492 57.0625 251.993 57.0625ZM263.771 53.3338V54.5057H259.254V53.3338H263.771ZM259.552 49.8182V58H258.295V49.8182H259.552ZM264.73 49.8182V58H263.473V49.8182H264.73ZM268.733 56.1463L272.675 49.8182H274.123V58H272.866V51.6719L268.946 58H267.476V49.8182H268.733V56.1463ZM281.798 58V50.9688H279.625C279.134 50.9688 278.749 51.0824 278.469 51.3097C278.188 51.5369 278.048 51.8494 278.048 52.2472C278.048 52.6378 278.174 52.945 278.426 53.1687C278.682 53.3924 279.031 53.5043 279.475 53.5043H282.117V54.6761H279.475C278.921 54.6761 278.444 54.5785 278.043 54.3832C277.641 54.1879 277.332 53.9091 277.116 53.5469C276.899 53.1811 276.791 52.7479 276.791 52.2472C276.791 51.7429 276.904 51.3097 277.132 50.9474C277.359 50.5852 277.684 50.3065 278.106 50.1112C278.533 49.9158 279.039 49.8182 279.625 49.8182H282.991V58H281.798ZM276.343 58L278.666 53.9304H280.029L277.707 58H276.343Z" fill="#CCCCCC"/>
<defs>
<radialGradient id="paint0_radial_69_13" cx="0" cy="0" r="1" gradientUnits="userSpaceOnUse" gradientTransform="translate(29.5507 28.3525) rotate(-29.6384) scale(26.6479 35.1315)">
<stop stop-color="white"/>
<stop offset="0.449559" stop-color="white"/>
<stop offset="0.62259" stop-color="#DCDCDC"/>
<stop offset="0.828117" stop-color="#EBEBEB"/>
<stop offset="1" stop-color="#75B8E3"/>
</radialGradient>
</defs>
</svg>
