<svg width="285" height="73" viewBox="0 0 285 73" fill="none" xmlns="http://www.w3.org/2000/svg">
<path d="M36.3394 72.6788C56.4091 72.6788 72.6788 56.4091 72.6788 36.3394C72.6788 16.2697 56.4091 0 36.3394 0C16.2697 0 0 16.2697 0 36.3394C0 56.4091 16.2697 72.6788 36.3394 72.6788Z" fill="#0195DB"/>
<mask id="mask0_69_2" style="mask-type:alpha" maskUnits="userSpaceOnUse" x="7" y="9" width="58" height="56">
<path d="M21.1648 16.3726C21.4126 14.3759 22.7622 12.3793 27.9536 9.18457C25.957 11.5806 27.5543 13.5773 29.551 14.7753C31.1483 15.7337 33.9202 16.3667 37.5377 16.3726C40.6319 16.3777 44.1138 16.2259 46.323 15.1746C48.248 14.2586 48.719 13.5773 49.5177 11.1813C57.9037 15.1746 60.6991 21.1647 61.8971 23.96C55.9071 27.9533 49.4694 30.3312 42.0818 29.95C34.3429 29.5506 27.1549 26.7553 23.9602 23.96C22.1346 22.3626 20.6692 20.3659 21.1648 16.3726Z" fill="#D9D9D9"/>
<path d="M10.3827 47.9201C7.82568 42.8062 5.98997 31.9468 11.9801 21.9634C9.98344 30.7487 10.8891 39.6438 15.3262 45.1248C22.115 53.5108 31.2997 57.1048 40.8837 58.7022C38.0883 60.6988 33.9434 63.8935 31.1481 64.2928C24.3594 62.6955 15.9734 59.1015 10.3827 47.9201Z" fill="#D9D9D9"/>
<path d="M18.3694 14.376C13.9767 18.3694 12.7787 22.3627 13.178 31.5474C13.3778 36.1423 18.9091 44.7254 23.7123 47.5208C34.1015 53.5671 39.4948 54.1236 48.8703 53.5108C56.4577 53.0149 58.3028 51.5141 61.0982 49.9168C65.0915 43.5274 65.4908 34.7421 63.8935 29.5507C55.5075 35.1414 46.075 35.9401 33.6956 34.3428C29.7023 33.1448 24.3437 31.3802 19.7189 26.7554C16.9236 23.9601 16.3727 19.9667 18.3694 14.376Z" fill="#D9D9D9"/>
</mask>
<g mask="url(#mask0_69_2)">
<path d="M69.4842 8.78516H-46.3228V117.404H69.4842V8.78516Z" fill="url(#paint0_radial_69_2)"/>
</g>
<path d="M87.8965 36.9998V15.1816H96.6323C98.2374 15.1816 99.5762 15.4195 100.648 15.8954C101.721 16.3712 102.527 17.0318 103.067 17.8769C103.607 18.715 103.876 19.6809 103.876 20.7747C103.876 21.6269 103.706 22.3762 103.365 23.0225C103.024 23.6617 102.555 24.1873 101.959 24.5992C101.369 25.0041 100.695 25.2917 99.9349 25.4622V25.6752C100.766 25.7107 101.543 25.9451 102.268 26.3784C102.999 26.8116 103.592 27.4188 104.047 28.2001C104.501 28.9742 104.729 29.8975 104.729 30.97C104.729 32.1276 104.441 33.161 103.866 34.0701C103.298 34.9721 102.456 35.6859 101.341 36.2114C100.226 36.737 98.8518 36.9998 97.2182 36.9998H87.8965ZM92.5094 33.2285H96.2701C97.5556 33.2285 98.4931 32.9835 99.0826 32.4934C99.6721 31.9962 99.9668 31.3357 99.9668 30.5119C99.9668 29.9082 99.8212 29.3755 99.53 28.9139C99.2388 28.4522 98.8234 28.09 98.2836 27.8272C97.7509 27.5644 97.1153 27.433 96.3766 27.433H92.5094V33.2285ZM92.5094 24.3116H95.9292C96.5613 24.3116 97.1224 24.2015 97.6124 23.9813C98.1096 23.7541 98.5002 23.4345 98.7843 23.0225C99.0755 22.6106 99.2211 22.117 99.2211 21.5417C99.2211 20.7534 98.9405 20.1177 98.3795 19.6347C97.8255 19.1518 97.0371 18.9103 96.0144 18.9103H92.5094V24.3116ZM115.039 37.3194C113.384 37.3194 111.953 36.9678 110.745 36.2647C109.545 35.5545 108.618 34.5673 107.965 33.3031C107.311 32.0318 106.985 30.558 106.985 28.8819C106.985 27.1916 107.311 25.7143 107.965 24.4501C108.618 23.1788 109.545 22.1916 110.745 21.4884C111.953 20.7782 113.384 20.4231 115.039 20.4231C116.693 20.4231 118.121 20.7782 119.321 21.4884C120.529 22.1916 121.459 23.1788 122.112 24.4501C122.766 25.7143 123.093 27.1916 123.093 28.8819C123.093 30.558 122.766 32.0318 122.112 33.3031C121.459 34.5673 120.529 35.5545 119.321 36.2647C118.121 36.9678 116.693 37.3194 115.039 37.3194ZM115.06 33.8038C115.813 33.8038 116.441 33.5907 116.945 33.1646C117.45 32.7313 117.83 32.1418 118.085 31.3961C118.348 30.6504 118.48 29.8016 118.48 28.8499C118.48 27.8982 118.348 27.0495 118.085 26.3038C117.83 25.558 117.45 24.9685 116.945 24.5353C116.441 24.1021 115.813 23.8855 115.06 23.8855C114.3 23.8855 113.661 24.1021 113.142 24.5353C112.631 24.9685 112.244 25.558 111.981 26.3038C111.725 27.0495 111.597 27.8982 111.597 28.8499C111.597 29.8016 111.725 30.6504 111.981 31.3961C112.244 32.1418 112.631 32.7313 113.142 33.1646C113.661 33.5907 114.3 33.8038 115.06 33.8038ZM126.044 36.9998V20.6362H130.582V26.9856H131.86L136.313 20.6362H141.64L135.855 28.7541L141.704 36.9998H136.313L132.276 31.1937H130.582V36.9998H126.044ZM143.622 43.1362V20.6362H148.096V23.3847H148.298C148.497 22.9444 148.785 22.497 149.161 22.0424C149.545 21.5808 150.042 21.1972 150.653 20.8918C151.271 20.5793 152.038 20.4231 152.954 20.4231C154.147 20.4231 155.248 20.7356 156.257 21.3606C157.265 21.9785 158.071 22.9124 158.675 24.1624C159.279 25.4053 159.58 26.9643 159.58 28.8393C159.58 30.6646 159.286 32.2058 158.696 33.4629C158.114 34.7129 157.318 35.661 156.31 36.3073C155.308 36.9465 154.186 37.2661 152.943 37.2661C152.063 37.2661 151.313 37.1205 150.695 36.8293C150.085 36.5382 149.584 36.1724 149.193 35.732C148.803 35.2846 148.504 34.8336 148.298 34.3791H148.16V43.1362H143.622ZM148.064 28.818C148.064 29.791 148.199 30.6397 148.469 31.3641C148.739 32.0886 149.129 32.6532 149.641 33.058C150.152 33.4558 150.774 33.6546 151.505 33.6546C152.244 33.6546 152.869 33.4522 153.38 33.0474C153.892 32.6355 154.279 32.0673 154.541 31.3428C154.811 30.6113 154.946 29.7697 154.946 28.818C154.946 27.8734 154.815 27.0424 154.552 26.3251C154.289 25.6078 153.902 25.0467 153.391 24.6418C152.879 24.237 152.251 24.0346 151.505 24.0346C150.767 24.0346 150.142 24.2299 149.63 24.6205C149.126 25.0112 148.739 25.5651 148.469 26.2825C148.199 26.9998 148.064 27.845 148.064 28.818ZM164.881 43.1362C164.305 43.1362 163.765 43.09 163.261 42.9977C162.764 42.9124 162.352 42.8024 162.025 42.6674L163.048 39.2796C163.581 39.443 164.06 39.5318 164.486 39.546C164.92 39.5602 165.292 39.4607 165.605 39.2477C165.925 39.0346 166.184 38.6724 166.383 38.161L166.649 37.4686L160.779 20.6362H165.552L168.939 32.6532H169.11L172.53 20.6362H177.334L170.974 38.7683C170.669 39.6489 170.253 40.416 169.728 41.0694C169.209 41.7299 168.552 42.2377 167.757 42.5928C166.961 42.9551 166.003 43.1362 164.881 43.1362ZM190.864 20.6362V24.2051H184.067V36.9998H179.657V20.6362H190.864ZM207.968 37.3194C206.292 37.3194 204.85 36.9643 203.643 36.2541C202.443 35.5367 201.519 34.5424 200.873 33.2711C200.234 31.9998 199.914 30.5367 199.914 28.8819C199.914 27.2058 200.237 25.7356 200.884 24.4714C201.537 23.2001 202.464 22.2093 203.664 21.4991C204.865 20.7818 206.292 20.4231 207.947 20.4231C209.374 20.4231 210.624 20.6823 211.697 21.2008C212.769 21.7193 213.618 22.4472 214.243 23.3847C214.868 24.3222 215.213 25.4231 215.276 26.6873H210.994C210.873 25.8705 210.553 25.2136 210.035 24.7164C209.524 24.2122 208.852 23.96 208.021 23.96C207.318 23.96 206.704 24.1518 206.178 24.5353C205.66 24.9117 205.255 25.4622 204.964 26.1866C204.673 26.911 204.527 27.7882 204.527 28.818C204.527 29.862 204.669 30.7498 204.953 31.4813C205.244 32.2129 205.653 32.7704 206.178 33.1539C206.704 33.5374 207.318 33.7292 208.021 33.7292C208.54 33.7292 209.005 33.6227 209.417 33.4096C209.836 33.1965 210.181 32.8876 210.45 32.4828C210.727 32.0708 210.909 31.5772 210.994 31.0019H215.276C215.205 32.2519 214.865 33.3528 214.254 34.3045C213.65 35.2491 212.816 35.9877 211.75 36.5204C210.685 37.0531 209.424 37.3194 207.968 37.3194ZM218.182 36.9998V20.6362H225.16C227.177 20.6362 228.772 21.0197 229.944 21.7867C231.115 22.5538 231.701 23.644 231.701 25.0573C231.701 25.9451 231.371 26.6837 230.711 27.2732C230.05 27.8627 229.134 28.2605 227.962 28.4664C228.942 28.5374 229.777 28.7612 230.466 29.1376C231.162 29.5069 231.691 29.9863 232.053 30.5758C232.422 31.1653 232.607 31.8187 232.607 32.536C232.607 33.4664 232.358 34.2654 231.861 34.933C231.371 35.6007 230.65 36.112 229.699 36.4671C228.754 36.8222 227.6 36.9998 226.236 36.9998H218.182ZM222.412 33.6014H226.236C226.868 33.6014 227.362 33.4522 227.717 33.1539C228.079 32.8485 228.26 32.433 228.26 31.9075C228.26 31.3251 228.079 30.867 227.717 30.5332C227.362 30.1994 226.868 30.0325 226.236 30.0325H222.412V33.6014ZM222.412 27.3691H225.256C225.711 27.3691 226.098 27.3052 226.417 27.1774C226.744 27.0424 226.993 26.8507 227.163 26.6021C227.341 26.3535 227.429 26.0587 227.429 25.7178C227.429 25.2136 227.227 24.8194 226.822 24.5353C226.417 24.2512 225.863 24.1092 225.16 24.1092H222.412V27.3691ZM242.925 37.3194C241.241 37.3194 239.793 36.9785 238.578 36.2967C237.371 35.6078 236.44 34.6347 235.787 33.3776C235.134 32.1134 234.807 30.6184 234.807 28.8926C234.807 27.2093 235.134 25.732 235.787 24.4607C236.44 23.1894 237.36 22.1987 238.546 21.4884C239.739 20.7782 241.138 20.4231 242.744 20.4231C243.823 20.4231 244.828 20.5971 245.759 20.9451C246.696 21.286 247.513 21.8009 248.209 22.4899C248.912 23.1788 249.459 24.0453 249.849 25.0893C250.24 26.1262 250.435 27.3407 250.435 28.7328V29.9792H236.618V27.1667H246.163C246.163 26.5133 246.021 25.9345 245.737 25.4302C245.453 24.9259 245.059 24.5318 244.555 24.2477C244.058 23.9565 243.479 23.8109 242.818 23.8109C242.129 23.8109 241.518 23.9707 240.986 24.2903C240.46 24.6028 240.048 25.0254 239.75 25.558C239.452 26.0836 239.299 26.6695 239.292 27.3159V29.9899C239.292 30.7995 239.441 31.4991 239.739 32.0886C240.045 32.6781 240.474 33.1326 241.028 33.4522C241.582 33.7718 242.239 33.9316 242.999 33.9316C243.504 33.9316 243.965 33.8606 244.384 33.7186C244.803 33.5765 245.162 33.3634 245.46 33.0793C245.759 32.7953 245.986 32.4472 246.142 32.0353L250.339 32.3123C250.126 33.3208 249.69 34.2015 249.029 34.9543C248.376 35.7001 247.531 36.2825 246.494 36.7015C245.464 37.1134 244.274 37.3194 242.925 37.3194ZM252.135 24.2051V20.6362H266.964V24.2051H261.691V36.9998H257.365V24.2051H252.135ZM273.796 37.3087C272.752 37.3087 271.821 37.1276 271.004 36.7654C270.188 36.3961 269.541 35.8528 269.066 35.1355C268.597 34.411 268.362 33.509 268.362 32.4295C268.362 31.5204 268.529 30.7569 268.863 30.139C269.197 29.5211 269.651 29.0239 270.227 28.6475C270.802 28.2711 271.455 27.987 272.187 27.7953C272.926 27.6035 273.7 27.4686 274.509 27.3904C275.461 27.291 276.228 27.1987 276.811 27.1134C277.393 27.0211 277.816 26.8862 278.078 26.7086C278.341 26.531 278.472 26.2683 278.472 25.9203V25.8563C278.472 25.1816 278.259 24.6596 277.833 24.2903C277.414 23.921 276.818 23.7363 276.044 23.7363C275.227 23.7363 274.577 23.9174 274.094 24.2796C273.611 24.6347 273.291 25.0822 273.135 25.622L268.938 25.281C269.151 24.2867 269.57 23.4274 270.195 22.7029C270.82 21.9714 271.626 21.4103 272.613 21.0197C273.607 20.622 274.758 20.4231 276.065 20.4231C276.974 20.4231 277.844 20.5296 278.675 20.7427C279.513 20.9558 280.255 21.286 280.901 21.7335C281.555 22.1809 282.07 22.7562 282.446 23.4593C282.823 24.1553 283.011 24.9899 283.011 25.9629V36.9998H278.707V34.7306H278.579C278.316 35.242 277.965 35.693 277.524 36.0836C277.084 36.4671 276.555 36.769 275.937 36.9891C275.319 37.2022 274.605 37.3087 273.796 37.3087ZM275.095 34.1766C275.763 34.1766 276.352 34.0453 276.864 33.7825C277.375 33.5126 277.776 33.1504 278.068 32.6958C278.359 32.2413 278.504 31.7264 278.504 31.1511V29.4146C278.362 29.5069 278.167 29.5921 277.919 29.6703C277.677 29.7413 277.404 29.8087 277.098 29.8727C276.793 29.9295 276.487 29.9828 276.182 30.0325C275.877 30.0751 275.6 30.1141 275.351 30.1497C274.818 30.2278 274.353 30.3521 273.955 30.5225C273.558 30.693 273.249 30.9238 273.029 31.215C272.808 31.4991 272.698 31.8542 272.698 32.2803C272.698 32.8982 272.922 33.3705 273.369 33.6972C273.824 34.0168 274.399 34.1766 275.095 34.1766Z" fill="#0195DB"/>
<path d="M88.6818 50.9901V49.8182H95.3295V50.9901H92.6449V58H91.3878V50.9901H88.6818ZM98.4229 61.0682C98.2099 61.0682 98.0199 61.0504 97.853 61.0149C97.6861 60.983 97.5706 60.951 97.5067 60.919L97.8263 59.8111C98.1317 59.8892 98.4016 59.9176 98.636 59.8963C98.8704 59.875 99.0781 59.7702 99.2592 59.582C99.4439 59.3974 99.6126 59.0973 99.7653 58.6818L99.9996 58.0426L96.9741 49.8182H98.3377L100.596 56.3381H100.681L102.94 49.8182H104.304L100.831 59.1932C100.674 59.6158 100.481 59.9656 100.25 60.2425C100.019 60.5231 99.751 60.7308 99.4456 60.8658C99.1438 61.0007 98.8029 61.0682 98.4229 61.0682ZM106.413 61.0682V49.8182H107.627V51.1179H107.777C107.869 50.9759 107.997 50.7947 108.16 50.5746C108.327 50.3509 108.565 50.152 108.874 49.978C109.186 49.8004 109.609 49.7116 110.142 49.7116C110.83 49.7116 111.438 49.8839 111.963 50.2283C112.489 50.5728 112.899 51.0611 113.194 51.6932C113.489 52.3253 113.636 53.071 113.636 53.9304C113.636 54.7969 113.489 55.5479 113.194 56.1836C112.899 56.8157 112.491 57.3058 111.969 57.6538C111.447 57.9982 110.845 58.1705 110.163 58.1705C109.637 58.1705 109.216 58.0835 108.9 57.9094C108.584 57.7319 108.341 57.5312 108.171 57.3075C108 57.0803 107.869 56.892 107.777 56.7429H107.67V61.0682H106.413ZM107.649 53.9091C107.649 54.527 107.739 55.0721 107.92 55.5444C108.101 56.0131 108.366 56.3807 108.714 56.647C109.062 56.9098 109.488 57.0412 109.992 57.0412C110.518 57.0412 110.957 56.9027 111.308 56.6257C111.663 56.3452 111.93 55.9687 112.107 55.4964C112.288 55.0206 112.379 54.4915 112.379 53.9091C112.379 53.3338 112.29 52.8153 112.112 52.3537C111.938 51.8885 111.674 51.521 111.319 51.2511C110.967 50.9776 110.525 50.8409 109.992 50.8409C109.481 50.8409 109.051 50.9705 108.703 51.2298C108.355 51.4854 108.093 51.8441 107.915 52.3058C107.737 52.7638 107.649 53.2983 107.649 53.9091ZM117.261 56.1463L121.202 49.8182H122.651V58H121.394V51.6719L117.474 58H116.003V49.8182H117.261V56.1463ZM128.728 58.1705C127.961 58.1705 127.3 57.9893 126.746 57.6271C126.192 57.2649 125.766 56.766 125.468 56.1303C125.169 55.4947 125.02 54.7685 125.02 53.9517C125.02 53.1207 125.173 52.3874 125.478 51.7518C125.787 51.1126 126.217 50.6136 126.767 50.255C127.321 49.8928 127.968 49.7116 128.706 49.7116C129.282 49.7116 129.8 49.8182 130.262 50.0312C130.723 50.2443 131.101 50.5426 131.396 50.9261C131.691 51.3097 131.874 51.7571 131.945 52.2685H130.688C130.592 51.8956 130.379 51.5653 130.049 51.2777C129.722 50.9865 129.282 50.8409 128.728 50.8409C128.237 50.8409 127.808 50.9687 127.438 51.2244C127.073 51.4766 126.787 51.8335 126.581 52.2951C126.378 52.7532 126.277 53.2912 126.277 53.9091C126.277 54.5412 126.377 55.0916 126.576 55.5604C126.778 56.0291 127.062 56.3931 127.428 56.6523C127.797 56.9116 128.23 57.0412 128.728 57.0412C129.054 57.0412 129.351 56.9844 129.617 56.8707C129.883 56.7571 130.109 56.5938 130.294 56.3807C130.478 56.1676 130.61 55.9119 130.688 55.6136H131.945C131.874 56.0966 131.698 56.5316 131.418 56.9187C131.141 57.3022 130.773 57.6076 130.315 57.8349C129.86 58.0586 129.331 58.1705 128.728 58.1705ZM133.588 50.9901V49.8182H140.236V50.9901H137.551V58H136.294V50.9901H133.588ZM143.777 56.1463L147.718 49.8182H149.167V58H147.91V51.6719L143.99 58H142.52V49.8182H143.777V56.1463ZM158.227 49.8182V58H156.969V49.8182H158.227ZM157.736 53.7173V54.8892C157.452 54.9957 157.17 55.0898 156.89 55.1715C156.609 55.2496 156.314 55.3118 156.005 55.358C155.696 55.4006 155.357 55.4219 154.988 55.4219C154.061 55.4219 153.317 55.1715 152.756 54.6708C152.198 54.1701 151.92 53.419 151.92 52.4176V49.7969H153.177V52.4176C153.177 52.8366 153.257 53.1811 153.417 53.451C153.576 53.7209 153.793 53.9215 154.066 54.0529C154.34 54.1843 154.647 54.25 154.988 54.25C155.521 54.25 156.002 54.2021 156.431 54.1062C156.865 54.0067 157.3 53.8771 157.736 53.7173ZM164.413 58.1705C163.625 58.1705 162.945 57.9964 162.373 57.6484C161.805 57.2969 161.367 56.8068 161.058 56.1783C160.752 55.5462 160.599 54.8111 160.599 53.973C160.599 53.1349 160.752 52.3963 161.058 51.7571C161.367 51.1143 161.796 50.6136 162.347 50.255C162.901 49.8928 163.547 49.7116 164.286 49.7116C164.712 49.7116 165.132 49.7827 165.548 49.9247C165.963 50.0668 166.342 50.2976 166.683 50.6172C167.023 50.9332 167.295 51.3523 167.498 51.8743C167.7 52.3963 167.801 53.0391 167.801 53.8026V54.3352H161.494V53.2486H166.523C166.523 52.7869 166.43 52.375 166.246 52.0128C166.065 51.6506 165.805 51.3647 165.468 51.1552C165.134 50.9457 164.74 50.8409 164.286 50.8409C163.785 50.8409 163.352 50.9652 162.986 51.2138C162.624 51.4588 162.345 51.7784 162.15 52.1726C161.954 52.5668 161.857 52.9893 161.857 53.4403V54.1648C161.857 54.7827 161.963 55.3065 162.176 55.7362C162.393 56.1623 162.693 56.4872 163.076 56.7109C163.46 56.9311 163.906 57.0412 164.413 57.0412C164.744 57.0412 165.042 56.995 165.308 56.9027C165.578 56.8068 165.811 56.6648 166.006 56.4766C166.201 56.2848 166.352 56.0469 166.459 55.7628L167.673 56.1037C167.545 56.5156 167.331 56.8778 167.029 57.1903C166.727 57.4993 166.354 57.7408 165.91 57.9148C165.466 58.0852 164.967 58.1705 164.413 58.1705ZM173.487 58.1705C172.72 58.1705 172.06 57.9893 171.506 57.6271C170.952 57.2649 170.526 56.766 170.227 56.1303C169.929 55.4947 169.78 54.7685 169.78 53.9517C169.78 53.1207 169.933 52.3874 170.238 51.7518C170.547 51.1126 170.977 50.6136 171.527 50.255C172.081 49.8928 172.727 49.7116 173.466 49.7116C174.041 49.7116 174.56 49.8182 175.021 50.0312C175.483 50.2443 175.861 50.5426 176.156 50.9261C176.451 51.3097 176.634 51.7571 176.705 52.2685H175.448C175.352 51.8956 175.139 51.5653 174.808 51.2777C174.482 50.9865 174.041 50.8409 173.487 50.8409C172.997 50.8409 172.568 50.9687 172.198 51.2244C171.832 51.4766 171.547 51.8335 171.341 52.2951C171.138 52.7532 171.037 53.2912 171.037 53.9091C171.037 54.5412 171.136 55.0916 171.335 55.5604C171.538 56.0291 171.822 56.3931 172.188 56.6523C172.557 56.9116 172.99 57.0412 173.487 57.0412C173.814 57.0412 174.111 56.9844 174.377 56.8707C174.643 56.7571 174.869 56.5938 175.053 56.3807C175.238 56.1676 175.369 55.9119 175.448 55.6136H176.705C176.634 56.0966 176.458 56.5316 176.177 56.9187C175.9 57.3022 175.533 57.6076 175.075 57.8349C174.62 58.0586 174.091 58.1705 173.487 58.1705ZM178.992 58V49.8182H180.249V53.3764H181.08L184.021 49.8182H185.64L182.338 53.7599L185.683 58H184.063L181.379 54.5483H180.249V58H178.992ZM189.907 58.1918C189.388 58.1918 188.918 58.0941 188.495 57.8988C188.073 57.6999 187.737 57.4141 187.488 57.0412C187.24 56.6648 187.115 56.2102 187.115 55.6776C187.115 55.2088 187.208 54.8288 187.392 54.5376C187.577 54.2429 187.824 54.0121 188.133 53.8452C188.442 53.6783 188.783 53.554 189.156 53.4723C189.532 53.3871 189.91 53.3196 190.29 53.2699C190.787 53.206 191.19 53.158 191.499 53.1261C191.812 53.0906 192.039 53.032 192.181 52.9503C192.327 52.8686 192.4 52.7266 192.4 52.5241V52.4815C192.4 51.956 192.256 51.5476 191.968 51.2564C191.684 50.9652 191.253 50.8196 190.674 50.8196C190.074 50.8196 189.603 50.951 189.262 51.2138C188.921 51.4766 188.682 51.7571 188.543 52.0554L187.35 51.6293C187.563 51.1321 187.847 50.745 188.202 50.468C188.561 50.1875 188.951 49.9922 189.374 49.8821C189.8 49.7685 190.219 49.7116 190.631 49.7116C190.894 49.7116 191.196 49.7436 191.537 49.8075C191.881 49.8679 192.213 49.994 192.533 50.1857C192.856 50.3775 193.124 50.6669 193.337 51.054C193.55 51.4411 193.657 51.9595 193.657 52.6094V58H192.4V56.892H192.336C192.25 57.0696 192.108 57.2596 191.91 57.462C191.711 57.6644 191.446 57.8366 191.116 57.9787C190.786 58.1207 190.383 58.1918 189.907 58.1918ZM190.098 57.0625C190.596 57.0625 191.015 56.9648 191.356 56.7695C191.7 56.5742 191.959 56.3221 192.133 56.0131C192.311 55.7042 192.4 55.3793 192.4 55.0384V53.8878C192.346 53.9517 192.229 54.0103 192.048 54.0636C191.87 54.1133 191.664 54.1577 191.43 54.1967C191.199 54.2322 190.974 54.2642 190.754 54.2926C190.537 54.3175 190.361 54.3388 190.226 54.3565C189.9 54.3991 189.594 54.4684 189.31 54.5643C189.03 54.6566 188.802 54.7969 188.628 54.9851C188.458 55.1697 188.373 55.4219 188.373 55.7415C188.373 56.1783 188.534 56.5085 188.857 56.7322C189.184 56.9524 189.598 57.0625 190.098 57.0625ZM201.323 58V50.9688H199.15C198.66 50.9688 198.274 51.0824 197.994 51.3097C197.713 51.5369 197.573 51.8494 197.573 52.2472C197.573 52.6378 197.699 52.945 197.951 53.1687C198.207 53.3924 198.557 53.5043 199.001 53.5043H201.643V54.6761H199.001C198.447 54.6761 197.969 54.5785 197.568 54.3832C197.166 54.1879 196.857 53.9091 196.641 53.5469C196.424 53.1811 196.316 52.7479 196.316 52.2472C196.316 51.7429 196.43 51.3097 196.657 50.9474C196.884 50.5852 197.209 50.3065 197.632 50.1112C198.058 49.9158 198.564 49.8182 199.15 49.8182H202.516V58H201.323ZM195.868 58L198.191 53.9304H199.555L197.232 58H195.868ZM209.943 58V49.8182H211.2V53.3764H212.031L214.971 49.8182H216.59L213.288 53.7599L216.633 58H215.014L212.329 54.5483H211.2V58H209.943ZM221.436 58.1705C220.698 58.1705 220.05 57.9947 219.492 57.6431C218.938 57.2915 218.505 56.7997 218.192 56.1676C217.883 55.5355 217.729 54.7969 217.729 53.9517C217.729 53.0994 217.883 52.3555 218.192 51.7198C218.505 51.0842 218.938 50.5906 219.492 50.239C220.05 49.8874 220.698 49.7116 221.436 49.7116C222.175 49.7116 222.821 49.8874 223.375 50.239C223.933 50.5906 224.366 51.0842 224.675 51.7198C224.987 52.3555 225.144 53.0994 225.144 53.9517C225.144 54.7969 224.987 55.5355 224.675 56.1676C224.366 56.7997 223.933 57.2915 223.375 57.6431C222.821 57.9947 222.175 58.1705 221.436 58.1705ZM221.436 57.0412C221.997 57.0412 222.459 56.8974 222.821 56.6097C223.184 56.3221 223.452 55.9439 223.626 55.4751C223.8 55.0064 223.887 54.4986 223.887 53.9517C223.887 53.4048 223.8 52.8952 223.626 52.4229C223.452 51.9506 223.184 51.5689 222.821 51.2777C222.459 50.9865 221.997 50.8409 221.436 50.8409C220.875 50.8409 220.414 50.9865 220.051 51.2777C219.689 51.5689 219.421 51.9506 219.247 52.4229C219.073 52.8952 218.986 53.4048 218.986 53.9517C218.986 54.4986 219.073 55.0064 219.247 55.4751C219.421 55.9439 219.689 56.3221 220.051 56.6097C220.414 56.8974 220.875 57.0412 221.436 57.0412ZM231.987 56.2955L234.842 49.8182H236.035L232.498 58H231.476L228.003 49.8182H229.175L231.987 56.2955ZM228.77 49.8182V58H227.513V49.8182H228.77ZM235.204 58V49.8182H236.462V58H235.204ZM239.213 58V49.8182H245.647V58H244.39V50.9901H240.47V58H239.213ZM250.801 58.1918C250.282 58.1918 249.812 58.0941 249.389 57.8988C248.967 57.6999 248.631 57.4141 248.382 57.0412C248.134 56.6648 248.01 56.2102 248.01 55.6776C248.01 55.2088 248.102 54.8288 248.287 54.5376C248.471 54.2429 248.718 54.0121 249.027 53.8452C249.336 53.6783 249.677 53.554 250.05 53.4723C250.426 53.3871 250.804 53.3196 251.184 53.2699C251.682 53.206 252.085 53.158 252.394 53.1261C252.706 53.0906 252.933 53.032 253.075 52.9503C253.221 52.8686 253.294 52.7266 253.294 52.5241V52.4815C253.294 51.956 253.15 51.5476 252.862 51.2564C252.578 50.9652 252.147 50.8196 251.568 50.8196C250.968 50.8196 250.497 50.951 250.156 51.2138C249.815 51.4766 249.576 51.7571 249.437 52.0554L248.244 51.6293C248.457 51.1321 248.741 50.745 249.096 50.468C249.455 50.1875 249.846 49.9922 250.268 49.8821C250.694 49.7685 251.113 49.7116 251.525 49.7116C251.788 49.7116 252.09 49.7436 252.431 49.8075C252.775 49.8679 253.107 49.994 253.427 50.1857C253.75 50.3775 254.018 50.6669 254.231 51.054C254.444 51.4411 254.551 51.9595 254.551 52.6094V58H253.294V56.892H253.23C253.145 57.0696 253.003 57.2596 252.804 57.462C252.605 57.6644 252.34 57.8366 252.01 57.9787C251.68 58.1207 251.277 58.1918 250.801 58.1918ZM250.993 57.0625C251.49 57.0625 251.909 56.9648 252.25 56.7695C252.594 56.5742 252.853 56.3221 253.027 56.0131C253.205 55.7042 253.294 55.3793 253.294 55.0384V53.8878C253.24 53.9517 253.123 54.0103 252.942 54.0636C252.765 54.1133 252.559 54.1577 252.324 54.1967C252.093 54.2322 251.868 54.2642 251.648 54.2926C251.431 54.3175 251.255 54.3388 251.12 54.3565C250.794 54.3991 250.488 54.4684 250.204 54.5643C249.924 54.6566 249.696 54.7969 249.522 54.9851C249.352 55.1697 249.267 55.4219 249.267 55.7415C249.267 56.1783 249.428 56.5085 249.751 56.7322C250.078 56.9524 250.492 57.0625 250.993 57.0625ZM262.771 53.3338V54.5057H258.254V53.3338H262.771ZM258.552 49.8182V58H257.295V49.8182H258.552ZM263.73 49.8182V58H262.473V49.8182H263.73ZM267.733 56.1463L271.675 49.8182H273.123V58H271.866V51.6719L267.946 58H266.476V49.8182H267.733V56.1463ZM280.798 58V50.9688H278.625C278.134 50.9688 277.749 51.0824 277.469 51.3097C277.188 51.5369 277.048 51.8494 277.048 52.2472C277.048 52.6378 277.174 52.945 277.426 53.1687C277.682 53.3924 278.031 53.5043 278.475 53.5043H281.117V54.6761H278.475C277.921 54.6761 277.444 54.5785 277.043 54.3832C276.641 54.1879 276.332 53.9091 276.116 53.5469C275.899 53.1811 275.791 52.7479 275.791 52.2472C275.791 51.7429 275.904 51.3097 276.132 50.9474C276.359 50.5852 276.684 50.3065 277.106 50.1112C277.533 49.9158 278.039 49.8182 278.625 49.8182H281.991V58H280.798ZM275.343 58L277.666 53.9304H279.029L276.707 58H275.343Z" fill="black"/>
<defs>
<radialGradient id="paint0_radial_69_2" cx="0" cy="0" r="1" gradientUnits="userSpaceOnUse" gradientTransform="translate(29.5507 28.3525) rotate(-29.6384) scale(26.6479 35.1315)">
<stop stop-color="white"/>
<stop offset="0.449559" stop-color="white"/>
<stop offset="0.62259" stop-color="#DCDCDC"/>
<stop offset="0.828117" stop-color="#EBEBEB"/>
<stop offset="1" stop-color="#75B8E3"/>
</radialGradient>
</defs>
</svg>
