<svg width="285" height="73" viewBox="0 0 285 73" fill="none" xmlns="http://www.w3.org/2000/svg">
<circle cx="36.3394" cy="36.3394" r="36.3394" fill="#0195DB"/>
<mask id="mask0_23_75" style="mask-type:alpha" maskUnits="userSpaceOnUse" x="7" y="9" width="58" height="56">
<path d="M21.1647 16.3727C21.4125 14.376 22.7621 12.3794 27.9535 9.18469C25.9569 11.5807 27.5542 13.5774 29.5509 14.7754C31.1482 15.7338 33.9201 16.3668 37.5376 16.3727C40.6318 16.3778 44.1137 16.226 46.3229 15.1747C48.2479 14.2587 48.7189 13.5774 49.5176 11.1814C57.9036 15.1747 60.699 21.1648 61.897 23.9601C55.907 27.9534 49.4693 30.3313 42.0817 29.9501C34.3428 29.5507 27.1548 26.7554 23.9601 23.9601C22.1345 22.3627 20.6691 20.366 21.1647 16.3727Z" fill="#D9D9D9"/>
<path d="M10.3827 47.9201C7.82572 42.8062 5.99001 31.9468 11.9801 21.9634C9.98348 30.7487 10.8891 39.6438 15.3262 45.1248C22.115 53.5108 31.2997 57.1048 40.8837 58.7022C38.0883 60.6988 33.9434 63.8935 31.1481 64.2928C24.3594 62.6955 15.9734 59.1015 10.3827 47.9201Z" fill="#D9D9D9"/>
<path d="M18.3694 14.376C13.9767 18.3694 12.7787 22.3627 13.178 31.5474C13.3778 36.1423 18.9091 44.7254 23.7123 47.5208C34.1015 53.5671 39.4948 54.1236 48.8703 53.5108C56.4577 53.0149 58.3028 51.5141 61.0982 49.9168C65.0915 43.5274 65.4908 34.7421 63.8935 29.5507C55.5075 35.1414 46.075 35.9401 33.6956 34.3428C29.7023 33.1448 24.3437 31.3802 19.7189 26.7554C16.9236 23.9601 16.3727 19.9667 18.3694 14.376Z" fill="#D9D9D9"/>
</mask>
<g mask="url(#mask0_23_75)">
<rect x="-46.3228" y="8.78534" width="115.807" height="108.619" fill="url(#paint0_radial_23_75)"/>
</g>
<path d="M87.8963 37V15.1818H96.6321C98.2372 15.1818 99.576 15.4197 100.648 15.8956C101.721 16.3714 102.527 17.032 103.067 17.8771C103.607 18.7152 103.876 19.6811 103.876 20.7749C103.876 21.6271 103.706 22.3764 103.365 23.0227C103.024 23.6619 102.555 24.1875 101.959 24.5994C101.369 25.0043 100.695 25.2919 99.9347 25.4624V25.6754C100.766 25.7109 101.543 25.9453 102.268 26.3786C102.999 26.8118 103.592 27.419 104.047 28.2003C104.501 28.9744 104.729 29.8977 104.729 30.9702C104.729 32.1278 104.441 33.1612 103.866 34.0703C103.298 34.9723 102.456 35.6861 101.341 36.2116C100.226 36.7372 98.8516 37 97.218 37H87.8963ZM92.5092 33.2287H96.2699C97.5554 33.2287 98.4929 32.9837 99.0824 32.4936C99.6719 31.9964 99.9666 31.3359 99.9666 30.5121C99.9666 29.9084 99.821 29.3757 99.5298 28.9141C99.2386 28.4524 98.8232 28.0902 98.2834 27.8274C97.7507 27.5646 97.1151 27.4332 96.3764 27.4332H92.5092V33.2287ZM92.5092 24.3118H95.929C96.5611 24.3118 97.1222 24.2017 97.6122 23.9815C98.1094 23.7543 98.5 23.4347 98.7841 23.0227C99.0753 22.6108 99.2209 22.1172 99.2209 21.5419C99.2209 20.7536 98.9403 20.1179 98.3793 19.6349C97.8253 19.152 97.0369 18.9105 96.0142 18.9105H92.5092V24.3118ZM115.039 37.3196C113.384 37.3196 111.953 36.968 110.745 36.2649C109.545 35.5547 108.618 34.5675 107.965 33.3033C107.311 32.032 106.985 30.5582 106.985 28.8821C106.985 27.1918 107.311 25.7145 107.965 24.4503C108.618 23.179 109.545 22.1918 110.745 21.4886C111.953 20.7784 113.384 20.4233 115.039 20.4233C116.693 20.4233 118.121 20.7784 119.321 21.4886C120.529 22.1918 121.459 23.179 122.112 24.4503C122.766 25.7145 123.093 27.1918 123.093 28.8821C123.093 30.5582 122.766 32.032 122.112 33.3033C121.459 34.5675 120.529 35.5547 119.321 36.2649C118.121 36.968 116.693 37.3196 115.039 37.3196ZM115.06 33.804C115.813 33.804 116.441 33.5909 116.945 33.1648C117.45 32.7315 117.83 32.142 118.085 31.3963C118.348 30.6506 118.48 29.8018 118.48 28.8501C118.48 27.8984 118.348 27.0497 118.085 26.304C117.83 25.5582 117.45 24.9687 116.945 24.5355C116.441 24.1023 115.813 23.8857 115.06 23.8857C114.3 23.8857 113.661 24.1023 113.142 24.5355C112.631 24.9687 112.244 25.5582 111.981 26.304C111.725 27.0497 111.597 27.8984 111.597 28.8501C111.597 29.8018 111.725 30.6506 111.981 31.3963C112.244 32.142 112.631 32.7315 113.142 33.1648C113.661 33.5909 114.3 33.804 115.06 33.804ZM126.044 37V20.6364H130.582V26.9858H131.86L136.313 20.6364H141.64L135.855 28.7543L141.704 37H136.313L132.276 31.1939H130.582V37H126.044ZM143.622 43.1364V20.6364H148.096V23.3849H148.298C148.497 22.9446 148.785 22.4972 149.161 22.0426C149.545 21.581 150.042 21.1974 150.653 20.892C151.271 20.5795 152.038 20.4233 152.954 20.4233C154.147 20.4233 155.248 20.7358 156.257 21.3608C157.265 21.9787 158.071 22.9126 158.675 24.1626C159.279 25.4055 159.58 26.9645 159.58 28.8395C159.58 30.6648 159.286 32.206 158.696 33.4631C158.114 34.7131 157.318 35.6612 156.31 36.3075C155.308 36.9467 154.186 37.2663 152.943 37.2663C152.063 37.2663 151.313 37.1207 150.695 36.8295C150.085 36.5384 149.584 36.1726 149.193 35.7322C148.803 35.2848 148.504 34.8338 148.298 34.3793H148.16V43.1364H143.622ZM148.064 28.8182C148.064 29.7912 148.199 30.6399 148.469 31.3643C148.739 32.0888 149.129 32.6534 149.641 33.0582C150.152 33.456 150.774 33.6548 151.505 33.6548C152.244 33.6548 152.869 33.4524 153.38 33.0476C153.892 32.6357 154.279 32.0675 154.541 31.343C154.811 30.6115 154.946 29.7699 154.946 28.8182C154.946 27.8736 154.815 27.0426 154.552 26.3253C154.289 25.608 153.902 25.0469 153.391 24.642C152.879 24.2372 152.251 24.0348 151.505 24.0348C150.767 24.0348 150.142 24.2301 149.63 24.6207C149.126 25.0114 148.739 25.5653 148.469 26.2827C148.199 27 148.064 27.8452 148.064 28.8182ZM164.881 43.1364C164.305 43.1364 163.765 43.0902 163.261 42.9979C162.764 42.9126 162.352 42.8026 162.025 42.6676L163.048 39.2798C163.581 39.4432 164.06 39.532 164.486 39.5462C164.92 39.5604 165.292 39.4609 165.605 39.2479C165.925 39.0348 166.184 38.6726 166.383 38.1612L166.649 37.4688L160.779 20.6364H165.552L168.939 32.6534H169.11L172.53 20.6364H177.334L170.974 38.7685C170.669 39.6491 170.253 40.4162 169.728 41.0696C169.209 41.7301 168.552 42.2379 167.757 42.593C166.961 42.9553 166.003 43.1364 164.881 43.1364ZM190.864 20.6364V24.2053H184.067V37H179.657V20.6364H190.864ZM207.968 37.3196C206.292 37.3196 204.85 36.9645 203.643 36.2543C202.443 35.5369 201.519 34.5426 200.873 33.2713C200.234 32 199.914 30.5369 199.914 28.8821C199.914 27.206 200.237 25.7358 200.884 24.4716C201.537 23.2003 202.464 22.2095 203.664 21.4993C204.865 20.782 206.292 20.4233 207.947 20.4233C209.374 20.4233 210.624 20.6825 211.697 21.201C212.769 21.7195 213.618 22.4474 214.243 23.3849C214.868 24.3224 215.213 25.4233 215.276 26.6875H210.994C210.873 25.8707 210.553 25.2138 210.035 24.7166C209.524 24.2124 208.852 23.9602 208.021 23.9602C207.318 23.9602 206.704 24.152 206.178 24.5355C205.66 24.9119 205.255 25.4624 204.964 26.1868C204.673 26.9112 204.527 27.7884 204.527 28.8182C204.527 29.8622 204.669 30.75 204.953 31.4815C205.244 32.2131 205.653 32.7706 206.178 33.1541C206.704 33.5376 207.318 33.7294 208.021 33.7294C208.54 33.7294 209.005 33.6229 209.417 33.4098C209.836 33.1967 210.181 32.8878 210.45 32.483C210.727 32.071 210.909 31.5774 210.994 31.0021H215.276C215.205 32.2521 214.865 33.353 214.254 34.3047C213.65 35.2493 212.816 35.9879 211.75 36.5206C210.685 37.0533 209.424 37.3196 207.968 37.3196ZM218.182 37V20.6364H225.16C227.177 20.6364 228.772 21.0199 229.944 21.7869C231.115 22.554 231.701 23.6442 231.701 25.0575C231.701 25.9453 231.371 26.6839 230.711 27.2734C230.05 27.8629 229.134 28.2607 227.962 28.4666C228.942 28.5376 229.777 28.7614 230.466 29.1378C231.162 29.5071 231.691 29.9865 232.053 30.576C232.422 31.1655 232.607 31.8189 232.607 32.5362C232.607 33.4666 232.358 34.2656 231.861 34.9332C231.371 35.6009 230.65 36.1122 229.699 36.4673C228.754 36.8224 227.6 37 226.236 37H218.182ZM222.412 33.6016H226.236C226.868 33.6016 227.362 33.4524 227.717 33.1541C228.079 32.8487 228.26 32.4332 228.26 31.9077C228.26 31.3253 228.079 30.8672 227.717 30.5334C227.362 30.1996 226.868 30.0327 226.236 30.0327H222.412V33.6016ZM222.412 27.3693H225.256C225.711 27.3693 226.098 27.3054 226.417 27.1776C226.744 27.0426 226.993 26.8509 227.163 26.6023C227.341 26.3537 227.429 26.0589 227.429 25.718C227.429 25.2138 227.227 24.8196 226.822 24.5355C226.417 24.2514 225.863 24.1094 225.16 24.1094H222.412V27.3693ZM242.925 37.3196C241.241 37.3196 239.793 36.9787 238.578 36.2969C237.371 35.608 236.44 34.6349 235.787 33.3778C235.134 32.1136 234.807 30.6186 234.807 28.8928C234.807 27.2095 235.134 25.7322 235.787 24.4609C236.44 23.1896 237.36 22.1989 238.546 21.4886C239.739 20.7784 241.138 20.4233 242.744 20.4233C243.823 20.4233 244.828 20.5973 245.759 20.9453C246.696 21.2862 247.513 21.8011 248.209 22.4901C248.912 23.179 249.459 24.0455 249.849 25.0895C250.24 26.1264 250.435 27.3409 250.435 28.733V29.9794H236.618V27.1669H246.163C246.163 26.5135 246.021 25.9347 245.737 25.4304C245.453 24.9261 245.059 24.532 244.555 24.2479C244.058 23.9567 243.479 23.8111 242.818 23.8111C242.129 23.8111 241.518 23.9709 240.986 24.2905C240.46 24.603 240.048 25.0256 239.75 25.5582C239.452 26.0838 239.299 26.6697 239.292 27.3161V29.9901C239.292 30.7997 239.441 31.4993 239.739 32.0888C240.045 32.6783 240.474 33.1328 241.028 33.4524C241.582 33.772 242.239 33.9318 242.999 33.9318C243.504 33.9318 243.965 33.8608 244.384 33.7188C244.803 33.5767 245.162 33.3636 245.46 33.0795C245.759 32.7955 245.986 32.4474 246.142 32.0355L250.339 32.3125C250.126 33.321 249.69 34.2017 249.029 34.9545C248.376 35.7003 247.531 36.2827 246.494 36.7017C245.464 37.1136 244.274 37.3196 242.925 37.3196ZM252.135 24.2053V20.6364H266.964V24.2053H261.691V37H257.365V24.2053H252.135ZM273.796 37.3089C272.752 37.3089 271.821 37.1278 271.004 36.7656C270.188 36.3963 269.541 35.853 269.066 35.1357C268.597 34.4112 268.362 33.5092 268.362 32.4297C268.362 31.5206 268.529 30.7571 268.863 30.1392C269.197 29.5213 269.651 29.0241 270.227 28.6477C270.802 28.2713 271.455 27.9872 272.187 27.7955C272.926 27.6037 273.7 27.4688 274.509 27.3906C275.461 27.2912 276.228 27.1989 276.811 27.1136C277.393 27.0213 277.816 26.8864 278.078 26.7088C278.341 26.5312 278.472 26.2685 278.472 25.9205V25.8565C278.472 25.1818 278.259 24.6598 277.833 24.2905C277.414 23.9212 276.818 23.7365 276.044 23.7365C275.227 23.7365 274.577 23.9176 274.094 24.2798C273.611 24.6349 273.291 25.0824 273.135 25.6222L268.938 25.2812C269.151 24.2869 269.57 23.4276 270.195 22.7031C270.82 21.9716 271.626 21.4105 272.613 21.0199C273.607 20.6222 274.758 20.4233 276.065 20.4233C276.974 20.4233 277.844 20.5298 278.675 20.7429C279.513 20.956 280.255 21.2862 280.901 21.7337C281.555 22.1811 282.07 22.7564 282.446 23.4595C282.823 24.1555 283.011 24.9901 283.011 25.9631V37H278.707V34.7308H278.579C278.316 35.2422 277.965 35.6932 277.524 36.0838C277.084 36.4673 276.555 36.7692 275.937 36.9893C275.319 37.2024 274.605 37.3089 273.796 37.3089ZM275.095 34.1768C275.763 34.1768 276.352 34.0455 276.864 33.7827C277.375 33.5128 277.776 33.1506 278.068 32.696C278.359 32.2415 278.504 31.7266 278.504 31.1513V29.4148C278.362 29.5071 278.167 29.5923 277.919 29.6705C277.677 29.7415 277.404 29.8089 277.098 29.8729C276.793 29.9297 276.487 29.983 276.182 30.0327C275.877 30.0753 275.6 30.1143 275.351 30.1499C274.818 30.228 274.353 30.3523 273.955 30.5227C273.558 30.6932 273.249 30.924 273.029 31.2152C272.808 31.4993 272.698 31.8544 272.698 32.2805C272.698 32.8984 272.922 33.3707 273.369 33.6974C273.824 34.017 274.399 34.1768 275.095 34.1768Z" fill="#0195DB"/>
<path d="M87.7244 48.2628V47.0909H95.9062V48.2628H92.4759V58H91.1548V48.2628H87.7244ZM97.6468 61.0682C97.4337 61.0682 97.2437 61.0504 97.0768 61.0149C96.9099 60.983 96.7945 60.951 96.7306 60.919L97.0502 59.8111C97.3556 59.8892 97.6254 59.9176 97.8598 59.8963C98.0942 59.875 98.3019 59.7702 98.483 59.582C98.6677 59.3974 98.8364 59.0973 98.9891 58.6818L99.2235 58.0426L96.1979 49.8182H97.5615L99.82 56.3381H99.9053L102.164 49.8182H103.527L100.054 59.1932C99.8982 59.6158 99.7046 59.9656 99.4738 60.2425C99.243 60.5231 98.9749 60.7308 98.6695 60.8658C98.3676 61.0007 98.0267 61.0682 97.6468 61.0682ZM105.187 61.0682V49.8182H106.401V51.1179H106.55C106.643 50.9759 106.771 50.7947 106.934 50.5746C107.101 50.3509 107.339 50.152 107.648 49.978C107.96 49.8004 108.383 49.7116 108.915 49.7116C109.604 49.7116 110.212 49.8839 110.737 50.2283C111.263 50.5728 111.673 51.0611 111.968 51.6932C112.262 52.3253 112.41 53.071 112.41 53.9304C112.41 54.7969 112.262 55.5479 111.968 56.1836C111.673 56.8157 111.264 57.3058 110.742 57.6538C110.22 57.9982 109.619 58.1705 108.937 58.1705C108.411 58.1705 107.99 58.0835 107.674 57.9094C107.358 57.7319 107.115 57.5312 106.945 57.3075C106.774 57.0803 106.643 56.892 106.55 56.7429H106.444V61.0682H105.187ZM106.422 53.9091C106.422 54.527 106.513 55.0721 106.694 55.5444C106.875 56.0131 107.14 56.3807 107.488 56.647C107.836 56.9098 108.262 57.0412 108.766 57.0412C109.292 57.0412 109.73 56.9027 110.082 56.6257C110.437 56.3452 110.703 55.9687 110.881 55.4964C111.062 55.0206 111.153 54.4915 111.153 53.9091C111.153 53.3338 111.064 52.8153 110.886 52.3537C110.712 51.8885 110.448 51.521 110.093 51.2511C109.741 50.9776 109.299 50.8409 108.766 50.8409C108.255 50.8409 107.825 50.9705 107.477 51.2298C107.129 51.4854 106.866 51.8441 106.689 52.3058C106.511 52.7638 106.422 53.2983 106.422 53.9091ZM115.584 56.1463L119.526 49.8182H120.975V58H119.718V51.6719L115.797 58H114.327V49.8182H115.584V56.1463ZM126.601 58.1705C125.834 58.1705 125.174 57.9893 124.62 57.6271C124.066 57.2649 123.64 56.766 123.341 56.1303C123.043 55.4947 122.894 54.7685 122.894 53.9517C122.894 53.1207 123.047 52.3874 123.352 51.7518C123.661 51.1126 124.091 50.6136 124.641 50.255C125.195 49.8928 125.841 49.7116 126.58 49.7116C127.155 49.7116 127.674 49.8182 128.135 50.0312C128.597 50.2443 128.975 50.5426 129.27 50.9261C129.565 51.3097 129.748 51.7571 129.819 52.2685H128.562C128.466 51.8956 128.253 51.5653 127.922 51.2777C127.596 50.9865 127.155 50.8409 126.601 50.8409C126.111 50.8409 125.682 50.9687 125.312 51.2244C124.947 51.4766 124.661 51.8335 124.455 52.2951C124.252 52.7532 124.151 53.2912 124.151 53.9091C124.151 54.5412 124.251 55.0916 124.449 55.5604C124.652 56.0291 124.936 56.3931 125.302 56.6523C125.671 56.9116 126.104 57.0412 126.601 57.0412C126.928 57.0412 127.225 56.9844 127.491 56.8707C127.757 56.7571 127.983 56.5938 128.167 56.3807C128.352 56.1676 128.483 55.9119 128.562 55.6136H129.819C129.748 56.0966 129.572 56.5316 129.291 56.9187C129.014 57.3022 128.647 57.6076 128.189 57.8349C127.734 58.0586 127.205 58.1705 126.601 58.1705ZM131.012 50.9901V49.8182H137.66V50.9901H134.975V58H133.718V50.9901H131.012ZM140.75 56.1463L144.692 49.8182H146.141V58H144.884V51.6719L140.964 58H139.493V49.8182H140.75V56.1463ZM154.75 49.8182V58H153.493V49.8182H154.75ZM154.26 53.7173V54.8892C153.976 54.9957 153.694 55.0898 153.413 55.1715C153.133 55.2496 152.838 55.3118 152.529 55.358C152.22 55.4006 151.881 55.4219 151.512 55.4219C150.585 55.4219 149.841 55.1715 149.28 54.6708C148.722 54.1701 148.444 53.419 148.444 52.4176V49.7969H149.701V52.4176C149.701 52.8366 149.781 53.1811 149.94 53.451C150.1 53.7209 150.317 53.9215 150.59 54.0529C150.864 54.1843 151.171 54.25 151.512 54.25C152.044 54.25 152.526 54.2021 152.955 54.1062C153.388 54.0067 153.824 53.8771 154.26 53.7173ZM160.487 58.1705C159.699 58.1705 159.019 57.9964 158.447 57.6484C157.879 57.2969 157.44 56.8068 157.131 56.1783C156.826 55.5462 156.673 54.8111 156.673 53.973C156.673 53.1349 156.826 52.3963 157.131 51.7571C157.44 51.1143 157.87 50.6136 158.42 50.255C158.974 49.8928 159.621 49.7116 160.359 49.7116C160.786 49.7116 161.206 49.7827 161.622 49.9247C162.037 50.0668 162.415 50.2976 162.756 50.6172C163.097 50.9332 163.369 51.3523 163.571 51.8743C163.774 52.3963 163.875 53.0391 163.875 53.8026V54.3352H157.568V53.2486H162.597C162.597 52.7869 162.504 52.375 162.32 52.0128C162.138 51.6506 161.879 51.3647 161.542 51.1552C161.208 50.9457 160.814 50.8409 160.359 50.8409C159.859 50.8409 159.425 50.9652 159.06 51.2138C158.697 51.4588 158.419 51.7784 158.223 52.1726C158.028 52.5668 157.93 52.9893 157.93 53.4403V54.1648C157.93 54.7827 158.037 55.3065 158.25 55.7362C158.467 56.1623 158.767 56.4872 159.15 56.7109C159.534 56.9311 159.979 57.0412 160.487 57.0412C160.817 57.0412 161.116 56.995 161.382 56.9027C161.652 56.8068 161.885 56.6648 162.08 56.4766C162.275 56.2848 162.426 56.0469 162.533 55.7628L163.747 56.1037C163.619 56.5156 163.404 56.8778 163.103 57.1903C162.801 57.4993 162.428 57.7408 161.984 57.9148C161.54 58.0852 161.041 58.1705 160.487 58.1705ZM169.111 58.1705C168.344 58.1705 167.684 57.9893 167.13 57.6271C166.576 57.2649 166.15 56.766 165.851 56.1303C165.553 55.4947 165.404 54.7685 165.404 53.9517C165.404 53.1207 165.556 52.3874 165.862 51.7518C166.171 51.1126 166.6 50.6136 167.151 50.255C167.705 49.8928 168.351 49.7116 169.09 49.7116C169.665 49.7116 170.184 49.8182 170.645 50.0312C171.107 50.2443 171.485 50.5426 171.78 50.9261C172.075 51.3097 172.257 51.7571 172.328 52.2685H171.071C170.975 51.8956 170.762 51.5653 170.432 51.2777C170.105 50.9865 169.665 50.8409 169.111 50.8409C168.621 50.8409 168.191 50.9687 167.822 51.2244C167.456 51.4766 167.17 51.8335 166.964 52.2951C166.762 52.7532 166.661 53.2912 166.661 53.9091C166.661 54.5412 166.76 55.0916 166.959 55.5604C167.162 56.0291 167.446 56.3931 167.811 56.6523C168.181 56.9116 168.614 57.0412 169.111 57.0412C169.438 57.0412 169.734 56.9844 170.001 56.8707C170.267 56.7571 170.493 56.5938 170.677 56.3807C170.862 56.1676 170.993 55.9119 171.071 55.6136H172.328C172.257 56.0966 172.082 56.5316 171.801 56.9187C171.524 57.3022 171.157 57.6076 170.699 57.8349C170.244 58.0586 169.715 58.1705 169.111 58.1705ZM174.166 58V49.8182H175.423V53.3764H176.254L179.195 49.8182H180.814L177.511 53.7599L180.857 58H179.237L176.553 54.5483H175.423V58H174.166ZM185.21 58.1705C184.471 58.1705 183.823 57.9947 183.266 57.6431C182.712 57.2915 182.278 56.7997 181.966 56.1676C181.657 55.5355 181.502 54.7969 181.502 53.9517C181.502 53.0994 181.657 52.3555 181.966 51.7198C182.278 51.0842 182.712 50.5906 183.266 50.239C183.823 49.8874 184.471 49.7116 185.21 49.7116C185.948 49.7116 186.595 49.8874 187.149 50.239C187.706 50.5906 188.139 51.0842 188.448 51.7198C188.761 52.3555 188.917 53.0994 188.917 53.9517C188.917 54.7969 188.761 55.5355 188.448 56.1676C188.139 56.7997 187.706 57.2915 187.149 57.6431C186.595 57.9947 185.948 58.1705 185.21 58.1705ZM185.21 57.0412C185.771 57.0412 186.233 56.8974 186.595 56.6097C186.957 56.3221 187.225 55.9439 187.399 55.4751C187.573 55.0064 187.66 54.4986 187.66 53.9517C187.66 53.4048 187.573 52.8952 187.399 52.4229C187.225 51.9506 186.957 51.5689 186.595 51.2777C186.233 50.9865 185.771 50.8409 185.21 50.8409C184.649 50.8409 184.187 50.9865 183.825 51.2777C183.463 51.5689 183.195 51.9506 183.021 52.4229C182.847 52.8952 182.759 53.4048 182.759 53.9517C182.759 54.4986 182.847 55.0064 183.021 55.4751C183.195 55.9439 183.463 56.3221 183.825 56.6097C184.187 56.8974 184.649 57.0412 185.21 57.0412ZM194.267 58.1705C193.478 58.1705 192.798 57.9964 192.226 57.6484C191.658 57.2969 191.22 56.8068 190.911 56.1783C190.605 55.5462 190.453 54.8111 190.453 53.973C190.453 53.1349 190.605 52.3963 190.911 51.7571C191.22 51.1143 191.649 50.6136 192.2 50.255C192.754 49.8928 193.4 49.7116 194.139 49.7116C194.565 49.7116 194.986 49.7827 195.401 49.9247C195.817 50.0668 196.195 50.2976 196.536 50.6172C196.877 50.9332 197.148 51.3523 197.351 51.8743C197.553 52.3963 197.654 53.0391 197.654 53.8026V54.3352H191.347V53.2486H196.376C196.376 52.7869 196.284 52.375 196.099 52.0128C195.918 51.6506 195.659 51.3647 195.321 51.1552C194.987 50.9457 194.593 50.8409 194.139 50.8409C193.638 50.8409 193.205 50.9652 192.839 51.2138C192.477 51.4588 192.198 51.7784 192.003 52.1726C191.807 52.5668 191.71 52.9893 191.71 53.4403V54.1648C191.71 54.7827 191.816 55.3065 192.029 55.7362C192.246 56.1623 192.546 56.4872 192.93 56.7109C193.313 56.9311 193.759 57.0412 194.267 57.0412C194.597 57.0412 194.895 56.995 195.161 56.9027C195.431 56.8068 195.664 56.6648 195.859 56.4766C196.055 56.2848 196.205 56.0469 196.312 55.7628L197.526 56.1037C197.399 56.5156 197.184 56.8778 196.882 57.1903C196.58 57.4993 196.207 57.7408 195.763 57.9148C195.319 58.0852 194.82 58.1705 194.267 58.1705ZM206.193 58.1918C205.675 58.1918 205.204 58.0941 204.781 57.8988C204.359 57.6999 204.023 57.4141 203.775 57.0412C203.526 56.6648 203.402 56.2102 203.402 55.6776C203.402 55.2088 203.494 54.8288 203.679 54.5376C203.863 54.2429 204.11 54.0121 204.419 53.8452C204.728 53.6783 205.069 53.554 205.442 53.4723C205.818 53.3871 206.197 53.3196 206.577 53.2699C207.074 53.206 207.477 53.158 207.786 53.1261C208.098 53.0906 208.325 53.032 208.468 52.9503C208.613 52.8686 208.686 52.7266 208.686 52.5241V52.4815C208.686 51.956 208.542 51.5476 208.254 51.2564C207.97 50.9652 207.539 50.8196 206.96 50.8196C206.36 50.8196 205.889 50.951 205.548 51.2138C205.208 51.4766 204.968 51.7571 204.829 52.0554L203.636 51.6293C203.849 51.1321 204.133 50.745 204.488 50.468C204.847 50.1875 205.238 49.9922 205.66 49.8821C206.086 49.7685 206.506 49.7116 206.917 49.7116C207.18 49.7116 207.482 49.7436 207.823 49.8075C208.167 49.8679 208.499 49.994 208.819 50.1857C209.142 50.3775 209.41 50.6669 209.623 51.054C209.836 51.4411 209.943 51.9595 209.943 52.6094V58H208.686V56.892H208.622C208.537 57.0696 208.395 57.2596 208.196 57.462C207.997 57.6644 207.732 57.8366 207.402 57.9787C207.072 58.1207 206.669 58.1918 206.193 58.1918ZM206.385 57.0625C206.882 57.0625 207.301 56.9648 207.642 56.7695C207.986 56.5742 208.246 56.3221 208.42 56.0131C208.597 55.7042 208.686 55.3793 208.686 55.0384V53.8878C208.633 53.9517 208.515 54.0103 208.334 54.0636C208.157 54.1133 207.951 54.1577 207.716 54.1967C207.486 54.2322 207.26 54.2642 207.04 54.2926C206.823 54.3175 206.648 54.3388 206.513 54.3565C206.186 54.3991 205.881 54.4684 205.596 54.5643C205.316 54.6566 205.089 54.7969 204.915 54.9851C204.744 55.1697 204.659 55.4219 204.659 55.7415C204.659 56.1783 204.82 56.5085 205.144 56.7322C205.47 56.9524 205.884 57.0625 206.385 57.0625ZM217.287 49.8182V50.9901H213.495V58H212.237V49.8182H217.287ZM222.128 58.1705C221.339 58.1705 220.659 57.9964 220.088 57.6484C219.52 57.2969 219.081 56.8068 218.772 56.1783C218.467 55.5462 218.314 54.8111 218.314 53.973C218.314 53.1349 218.467 52.3963 218.772 51.7571C219.081 51.1143 219.511 50.6136 220.061 50.255C220.615 49.8928 221.261 49.7116 222 49.7116C222.426 49.7116 222.847 49.7827 223.262 49.9247C223.678 50.0668 224.056 50.2976 224.397 50.6172C224.738 50.9332 225.01 51.3523 225.212 51.8743C225.414 52.3963 225.516 53.0391 225.516 53.8026V54.3352H219.209V53.2486H224.237C224.237 52.7869 224.145 52.375 223.96 52.0128C223.779 51.6506 223.52 51.3647 223.183 51.1552C222.849 50.9457 222.455 50.8409 222 50.8409C221.499 50.8409 221.066 50.9652 220.7 51.2138C220.338 51.4588 220.059 51.7784 219.864 52.1726C219.669 52.5668 219.571 52.9893 219.571 53.4403V54.1648C219.571 54.7827 219.678 55.3065 219.891 55.7362C220.107 56.1623 220.407 56.4872 220.791 56.7109C221.174 56.9311 221.62 57.0412 222.128 57.0412C222.458 57.0412 222.756 56.995 223.023 56.9027C223.293 56.8068 223.525 56.6648 223.721 56.4766C223.916 56.2848 224.067 56.0469 224.173 55.7628L225.388 56.1037C225.26 56.5156 225.045 56.8778 224.743 57.1903C224.441 57.4993 224.069 57.7408 223.625 57.9148C223.181 58.0852 222.682 58.1705 222.128 58.1705ZM232.904 53.3338V54.5057H228.387V53.3338H232.904ZM228.685 49.8182V58H227.428V49.8182H228.685ZM233.863 49.8182V58H232.605V49.8182H233.863ZM235.045 50.9901V49.8182H241.693V50.9901H239.008V58H237.751V50.9901H235.045ZM246.426 58.1705C245.659 58.1705 244.998 57.9893 244.444 57.6271C243.89 57.2649 243.464 56.766 243.166 56.1303C242.867 55.4947 242.718 54.7685 242.718 53.9517C242.718 53.1207 242.871 52.3874 243.176 51.7518C243.485 51.1126 243.915 50.6136 244.465 50.255C245.019 49.8928 245.666 49.7116 246.404 49.7116C246.98 49.7116 247.498 49.8182 247.96 50.0312C248.421 50.2443 248.8 50.5426 249.094 50.9261C249.389 51.3097 249.572 51.7571 249.643 52.2685H248.386C248.29 51.8956 248.077 51.5653 247.747 51.2777C247.42 50.9865 246.98 50.8409 246.426 50.8409C245.936 50.8409 245.506 50.9687 245.137 51.2244C244.771 51.4766 244.485 51.8335 244.279 52.2951C244.077 52.7532 243.975 53.2912 243.975 53.9091C243.975 54.5412 244.075 55.0916 244.274 55.5604C244.476 56.0291 244.76 56.3931 245.126 56.6523C245.495 56.9116 245.928 57.0412 246.426 57.0412C246.752 57.0412 247.049 56.9844 247.315 56.8707C247.581 56.7571 247.807 56.5938 247.992 56.3807C248.176 56.1676 248.308 55.9119 248.386 55.6136H249.643C249.572 56.0966 249.396 56.5316 249.116 56.9187C248.839 57.3022 248.471 57.6076 248.013 57.8349C247.558 58.0586 247.029 58.1705 246.426 58.1705ZM250.836 50.9901V49.8182H257.484V50.9901H254.799V58H253.542V50.9901H250.836ZM259.318 58V49.8182H262.663C263.543 49.8182 264.243 50.017 264.761 50.4148C265.28 50.8125 265.539 51.3381 265.539 51.9915C265.539 52.4886 265.392 52.8739 265.097 53.1474C264.802 53.4173 264.424 53.6001 263.962 53.696C264.264 53.7386 264.557 53.8452 264.841 54.0156C265.129 54.1861 265.367 54.4205 265.555 54.7188C265.743 55.0135 265.837 55.3757 265.837 55.8054C265.837 56.2244 265.731 56.5991 265.518 56.9293C265.305 57.2596 264.999 57.5206 264.602 57.7124C264.204 57.9041 263.728 58 263.174 58H259.318ZM260.511 56.8494H263.174C263.607 56.8494 263.946 56.7464 264.191 56.5405C264.437 56.3345 264.559 56.054 264.559 55.6989C264.559 55.2763 264.437 54.9442 264.191 54.7028C263.946 54.4577 263.607 54.3352 263.174 54.3352H260.511V56.8494ZM260.511 53.2486H262.663C263 53.2486 263.29 53.2024 263.531 53.1101C263.772 53.0142 263.957 52.8793 264.085 52.7053C264.216 52.5277 264.282 52.3182 264.282 52.0767C264.282 51.7322 264.138 51.4624 263.851 51.267C263.563 51.0682 263.167 50.9688 262.663 50.9688H260.511V53.2486ZM271.064 58.1705C270.326 58.1705 269.678 57.9947 269.12 57.6431C268.566 57.2915 268.133 56.7997 267.82 56.1676C267.511 55.5355 267.357 54.7969 267.357 53.9517C267.357 53.0994 267.511 52.3555 267.82 51.7198C268.133 51.0842 268.566 50.5906 269.12 50.239C269.678 49.8874 270.326 49.7116 271.064 49.7116C271.803 49.7116 272.449 49.8874 273.003 50.239C273.561 50.5906 273.994 51.0842 274.303 51.7198C274.615 52.3555 274.772 53.0994 274.772 53.9517C274.772 54.7969 274.615 55.5355 274.303 56.1676C273.994 56.7997 273.561 57.2915 273.003 57.6431C272.449 57.9947 271.803 58.1705 271.064 58.1705ZM271.064 57.0412C271.625 57.0412 272.087 56.8974 272.449 56.6097C272.811 56.3221 273.08 55.9439 273.254 55.4751C273.428 55.0064 273.515 54.4986 273.515 53.9517C273.515 53.4048 273.428 52.8952 273.254 52.4229C273.08 51.9506 272.811 51.5689 272.449 51.2777C272.087 50.9865 271.625 50.8409 271.064 50.8409C270.503 50.8409 270.042 50.9865 269.679 51.2777C269.317 51.5689 269.049 51.9506 268.875 52.4229C268.701 52.8952 268.614 53.4048 268.614 53.9517C268.614 54.4986 268.701 55.0064 268.875 55.4751C269.049 55.9439 269.317 56.3221 269.679 56.6097C270.042 56.8974 270.503 57.0412 271.064 57.0412Z" fill="black"/>
<defs>
<radialGradient id="paint0_radial_23_75" cx="0" cy="0" r="1" gradientUnits="userSpaceOnUse" gradientTransform="translate(29.5507 28.3527) rotate(-29.6384) scale(26.6479 35.1315)">
<stop stop-color="white"/>
<stop offset="0.449559" stop-color="white"/>
<stop offset="0.62259" stop-color="#DCDCDC"/>
<stop offset="0.828117" stop-color="#EBEBEB"/>
<stop offset="1" stop-color="#75B8E3"/>
</radialGradient>
</defs>
</svg>
