<svg width="43" height="41" viewBox="0 0 43 41" fill="none" xmlns="http://www.w3.org/2000/svg">
<path d="M30.4783 -5.47341e-07L12.5217 -1.33225e-06C1.3576 -1.82025e-06 -3.182 7.90229 2.36641 17.5532L4.85479 21.8574C5.46007 22.8998 6.56975 23.5387 7.78031 23.5387L35.2196 23.5387C36.4302 23.5387 37.5399 22.8998 38.1452 21.8574L40.6336 17.5532C46.182 7.90229 41.6423 -5.93435e-08 30.4783 -5.47341e-07Z" fill="#75B8E3"/>
<path opacity="0.4" d="M32.2937 26.9014L10.6715 26.9014C9.36009 26.9014 8.55305 28.3137 9.22558 29.4234L11.3777 33.1223C16.9261 42.7732 26.0726 42.7732 31.6211 33.1223L33.7732 29.4234C34.4122 28.3137 33.6051 26.9014 32.2937 26.9014Z" fill="#BABABA"/>
</svg>
