<svg width="73" height="73" viewBox="0 0 73 73" fill="none" xmlns="http://www.w3.org/2000/svg">
<path d="M36.3394 72.6788C56.4091 72.6788 72.6788 56.4091 72.6788 36.3394C72.6788 16.2697 56.4091 0 36.3394 0C16.2697 0 0 16.2697 0 36.3394C0 56.4091 16.2697 72.6788 36.3394 72.6788Z" fill="#0195DB"/>
<mask id="mask0_86_10" style="mask-type:alpha" maskUnits="userSpaceOnUse" x="7" y="9" width="58" height="56">
<path d="M21.1648 16.3726C21.4127 14.3759 22.7622 12.3792 27.9537 9.18457C25.957 11.5806 27.5543 13.5772 29.551 14.7753C31.1483 15.7337 33.9202 16.3666 37.5377 16.3726C40.6319 16.3777 44.1138 16.2259 46.323 15.1746C48.248 14.2585 48.719 13.5772 49.5177 11.1812C57.9037 15.1746 60.6991 21.1646 61.8971 23.96C55.9071 27.9533 49.4694 30.3312 42.0819 29.95C34.343 29.5506 27.1549 26.7553 23.9602 23.96C22.1346 22.3626 20.6692 20.3659 21.1648 16.3726Z" fill="#D9D9D9"/>
<path d="M10.3827 47.9201C7.82567 42.8061 5.98997 31.9467 11.9801 21.9634C9.98344 30.7487 10.8891 39.6437 15.3262 45.1248C22.115 53.5108 31.2998 57.1048 40.8837 58.7021C38.0884 60.6988 33.9434 63.8935 31.1481 64.2928C24.3594 62.6955 15.9734 59.1015 10.3827 47.9201Z" fill="#D9D9D9"/>
<path d="M18.3694 14.376C13.9767 18.3694 12.7787 22.3627 13.178 31.5474C13.3778 36.1423 18.9091 44.7254 23.7123 47.5208C34.1015 53.5671 39.4948 54.1236 48.8703 53.5108C56.4577 53.0149 58.3028 51.5141 61.0982 49.9168C65.0915 43.5274 65.4908 34.7421 63.8935 29.5507C55.5075 35.1414 46.075 35.9401 33.6956 34.3427C29.7023 33.1447 24.3437 31.3802 19.7189 26.7554C16.9236 23.96 16.3727 19.9667 18.3694 14.376Z" fill="#D9D9D9"/>
</mask>
<g mask="url(#mask0_86_10)">
<path d="M69.4842 8.78516H-46.3228V117.404H69.4842V8.78516Z" fill="url(#paint0_radial_86_10)"/>
</g>
<defs>
<radialGradient id="paint0_radial_86_10" cx="0" cy="0" r="1" gradientUnits="userSpaceOnUse" gradientTransform="translate(29.5507 28.3525) rotate(-29.6384) scale(26.6479 35.1315)">
<stop stop-color="white"/>
<stop offset="0.449559" stop-color="white"/>
<stop offset="0.62259" stop-color="#DCDCDC"/>
<stop offset="0.828117" stop-color="#EBEBEB"/>
<stop offset="1" stop-color="#75B8E3"/>
</radialGradient>
</defs>
</svg>
