<svg width="34" height="32" viewBox="0 0 34 32" fill="none" xmlns="http://www.w3.org/2000/svg">
<path d="M17 0.125C18.1736 0.125 19.125 1.07634 19.125 2.25C19.125 2.3737 19.2122 2.47992 19.3329 2.50695C19.6145 2.57007 19.892 2.64432 20.1647 2.72931C20.2824 2.76597 20.4105 2.71769 20.4722 2.61095C21.059 1.59463 22.3586 1.24638 23.375 1.83314C24.3914 2.41991 24.7396 3.71963 24.1527 4.73595C24.0902 4.84414 24.1128 4.98105 24.2046 5.06577C24.4141 5.25913 24.6158 5.46079 24.8091 5.67031C24.8939 5.76209 25.0308 5.78462 25.1389 5.72219C26.1553 5.13543 27.455 5.48368 28.0419 6.5C28.6286 7.51632 28.2803 8.81604 27.2639 9.40281C27.1573 9.4644 27.109 9.59251 27.1456 9.71015C27.2306 9.98292 27.3049 10.2604 27.3681 10.5422C27.395 10.6628 27.5013 10.75 27.625 10.75C28.7986 10.75 29.75 11.7013 29.75 12.875C29.75 14.0487 28.7986 15 27.625 15C27.5013 15 27.395 15.0872 27.3681 15.2078C27.3513 15.2832 27.3336 15.3582 27.3151 15.4329C27.2644 15.6376 27.2078 15.84 27.1456 16.0398C27.109 16.1575 27.1573 16.2856 27.2639 16.3472C28.2803 16.934 28.6286 18.2337 28.0419 19.25C27.455 20.2664 26.1553 20.6147 25.1389 20.0278L25.0314 19.9657C24.9859 19.9394 24.9281 19.9489 24.8931 19.9878C24.8606 20.0237 24.8548 20.0762 24.879 20.1181L29.8987 28.8125L26.0758 28.566L24.3778 32L19.3712 23.3283C19.3427 23.2788 19.2854 23.2537 19.2296 23.2656C19.1688 23.2786 19.125 23.3321 19.125 23.3942V23.5C19.125 24.6736 18.1736 25.625 17 25.625C15.8264 25.625 14.875 24.6736 14.875 23.5V23.3942C14.875 23.3321 14.8311 23.2786 14.7704 23.2656C14.7145 23.2537 14.6573 23.2788 14.6287 23.3283L9.62212 32L7.92416 28.566L4.1012 28.8125L9.12093 20.1181C9.14508 20.0762 9.13927 20.0237 9.10695 19.9878C9.07176 19.9489 9.01411 19.9394 8.96859 19.9657L8.86098 20.0278C7.8446 20.6147 6.54501 20.2664 5.95817 19.25C5.37135 18.2337 5.7196 16.934 6.73598 16.3472C6.84268 16.2856 6.89096 16.1575 6.8543 16.0399C6.7693 15.7671 6.69499 15.4896 6.63186 15.2078C6.60483 15.0872 6.49862 15 6.37497 15C5.20137 15 4.24997 14.0487 4.24997 12.875C4.24997 11.7013 5.20137 10.75 6.37497 10.75C6.49862 10.75 6.60483 10.6628 6.63186 10.5422C6.69499 10.2604 6.7693 9.98287 6.8543 9.71009C6.89096 9.59247 6.84268 9.4644 6.73598 9.40281C5.7196 8.81604 5.37135 7.51632 5.95817 6.5C6.54501 5.48368 7.8446 5.13543 8.86098 5.72219C8.96912 5.78462 9.106 5.76212 9.1907 5.67036C9.38414 5.46077 9.58591 5.25898 9.79547 5.06554C9.88721 4.98088 9.90971 4.84405 9.84728 4.73595C9.26053 3.71963 9.60871 2.42004 10.6251 1.83314C11.6415 1.24638 12.9411 1.59463 13.5279 2.61095C13.5895 2.71769 13.7176 2.76599 13.8352 2.72936C14.108 2.6444 14.3854 2.57011 14.6671 2.50698C14.7878 2.47992 14.875 2.3737 14.875 2.25C14.875 1.07634 15.8264 0.125 17 0.125ZM17 6.5C13.4791 6.5 10.625 9.35417 10.625 12.875C10.625 16.3958 13.4791 19.25 17 19.25C20.5208 19.25 23.375 16.3958 23.375 12.875C23.375 9.35417 20.5208 6.5 17 6.5ZM17 10.75C18.1736 10.75 19.125 11.7014 19.125 12.875C19.125 14.0486 18.1736 15 17 15C15.8264 15 14.875 14.0486 14.875 12.875C14.875 11.7014 15.8264 10.75 17 10.75Z" fill="white"/>
</svg>
