<svg width="32" height="32" viewBox="0 0 32 32" fill="none" xmlns="http://www.w3.org/2000/svg">
<g clip-path="url(#clip0_23_67)">
<path d="M27.875 6.5L25.5527 8.24167C25.0046 8.65276 24.338 8.875 23.6527 8.875H18.3354C17.3894 8.875 16.5244 9.40955 16.1014 10.2558C15.5792 11.3 15.8501 12.5667 16.7537 13.3061L19.9204 15.8969C22.4124 17.9359 23.702 21.0983 23.3465 24.2986L23.3149 24.5826C23.1888 25.7168 22.9102 26.8287 22.4865 27.8881L21.5417 30.25" stroke="white"/>
<path d="M0.958313 13.625L6.0853 12.7705C8.22857 12.4133 10.0867 14.2715 9.72947 16.4147L9.5165 17.6926C9.13518 19.9805 10.2906 22.2496 12.3652 23.2868C14.0264 24.1174 14.8878 25.9903 14.4374 27.792L13.625 31.0417" stroke="white"/>
<path d="M16 31.0417C24.3073 31.0417 31.0416 24.3073 31.0416 16C31.0416 7.69273 24.3073 0.958344 16 0.958344C7.6927 0.958344 0.958313 7.69273 0.958313 16C0.958313 24.3073 7.6927 31.0417 16 31.0417Z" stroke="white"/>
</g>
<defs>
<clipPath id="clip0_23_67">
<rect width="32" height="32" fill="white"/>
</clipPath>
</defs>
</svg>
