<svg width="39" height="31" viewBox="0 0 39 31" fill="none" xmlns="http://www.w3.org/2000/svg">
<g clip-path="url(#clip0_23_60)">
<path d="M4.56778 12.4307C5.19804 10.3789 6.38078 8.54002 7.98647 7.11556C7.113 6.41685 7.98647 2.07491 7.98647 2.07491C7.98647 2.07491 11.48 3.62178 12.1038 4.34563C12.1038 4.34563 14.7988 1.07675 22.6093 1.07675C30.4198 1.07675 37.7813 7.11556 37.7813 15.1756C37.7813 23.2357 31.942 25.8059 31.942 25.8059C31.6377 27.228 31.1687 28.6097 30.5447 29.9233H27.45C26.9563 29.1638 26.5147 28.3718 26.1281 27.5527C26.1281 27.5527 23.6577 27.8521 21.8859 27.8521C20.6374 27.8267 19.3933 27.6931 18.1678 27.4528C18.0622 28.3306 17.7639 29.1741 17.2944 29.9233H13.9254C12.8774 29.0249 12.3533 26.2052 12.3533 26.2052C12.3533 26.2052 3.86906 22.3625 2.07235 20.0666C1.09922 18.2449 1.22391 14.2024 1.22391 14.2024C2.16732 13.3337 3.31916 12.7234 4.56778 12.4307Z" stroke="white" stroke-linecap="round" stroke-linejoin="round"/>
<path d="M15.3229 5.91772C17.322 4.48041 19.7513 3.76746 22.2101 3.89647C24.8968 3.85214 27.5248 4.68436 29.6963 6.26713" stroke="white" stroke-linecap="round" stroke-linejoin="round"/>
<path d="M7.88663 13.6578C8.27495 13.6578 8.58975 13.343 8.58975 12.9547C8.58975 12.5664 8.27495 12.2516 7.88663 12.2516C7.4983 12.2516 7.1835 12.5664 7.1835 12.9547C7.1835 13.343 7.4983 13.6578 7.88663 13.6578Z" fill="white"/>
</g>
<defs>
<clipPath id="clip0_23_60">
<rect width="39" height="31" fill="white"/>
</clipPath>
</defs>
</svg>
