<svg width="99" height="99" viewBox="0 0 99 99" fill="none" xmlns="http://www.w3.org/2000/svg">
<g clip-path="url(#clip0_87_2)">
<circle cx="49.5" cy="49.5" r="43.5" fill="white"/>
<path d="M49.5 0C22.1628 0 0 22.1618 0 49.5C0 76.8382 22.1628 99 49.5 99C76.8372 99 99 76.8382 99 49.5C99 22.1618 76.8372 0 49.5 0ZM74.609 54.8536C76.9162 57.107 79.357 59.2278 81.4281 61.7142C82.3457 62.8141 83.2106 63.9515 83.8689 65.2306C84.8088 67.0546 83.9601 69.0549 82.3275 69.1633L72.1864 69.1612C69.5674 69.378 67.4831 68.3216 65.7259 66.531C64.3232 65.104 63.0217 63.5798 61.6707 62.1041C61.1187 61.4985 60.5374 60.9283 59.8446 60.4796C58.4622 59.5803 57.261 59.8558 56.469 61.3C55.6618 62.7695 55.4775 64.3981 55.4005 66.0338C55.2901 68.4249 54.569 69.0498 52.1697 69.1623C47.043 69.4023 42.1786 68.6245 37.6575 66.0398C33.6691 63.7601 30.5821 60.5424 27.8922 56.8994C22.654 49.7978 18.6424 42.0033 15.0379 33.9851C14.2266 32.1793 14.8201 31.2131 16.8123 31.1756C20.1221 31.1118 23.4319 31.1199 26.7416 31.1726C28.0887 31.1939 28.9799 31.9646 29.4974 33.2356C31.286 37.6362 33.4787 41.8231 36.2264 45.7061C36.9586 46.7402 37.7061 47.7712 38.7705 48.5014C39.9454 49.3076 40.8407 49.0412 41.3947 47.7296C41.7491 46.8961 41.9021 46.0049 41.979 45.1116C42.2424 42.052 42.2738 38.9933 41.818 35.9459C41.5344 34.0388 40.4619 32.8072 38.5609 32.4467C37.5927 32.2634 37.7344 31.9048 38.2054 31.3519C39.0227 30.3958 39.7884 29.8043 41.3187 29.8043L52.7764 29.8023C54.5822 30.1568 54.9873 30.967 55.2324 32.786L55.2425 45.5187C55.2212 46.2226 55.596 48.309 56.8599 48.7698C57.8727 49.104 58.5412 48.2917 59.1468 47.6506C61.8945 44.7348 63.8522 41.2934 65.6053 37.7314C66.3791 36.1606 67.0465 34.535 67.6947 32.9065C68.1768 31.7023 68.9263 31.1098 70.2854 31.1301L81.3187 31.1432C81.6439 31.1432 81.974 31.1463 82.2961 31.202C84.1556 31.52 84.665 32.3201 84.0897 34.134C83.1843 36.984 81.4251 39.3579 79.7054 41.738C77.8621 44.2862 75.8963 46.7452 74.0712 49.3045C72.3941 51.6441 72.5267 52.8219 74.609 54.8536Z" fill="#5181B8"/>
</g>
<defs>
<clipPath id="clip0_87_2">
<rect width="99" height="99" fill="white"/>
</clipPath>
</defs>
</svg>
