<?xml version="1.0" standalone="no"?>
        <!DOCTYPE svg PUBLIC "-//W3C//DTD SVG 1.1//EN" 
        "http://www.w3.org/Graphics/SVG/1.1/DTD/svg11.dtd">  <svg xmlns="http://www.w3.org/2000/svg" xmlns:xlink="http://www.w3.org/1999/xlink" width="40" zoomAndPan="magnify" viewBox="0 0 30 30.000001" height="40" preserveAspectRatio="xMidYMid meet" version="1.0"><defs><clipPath id="id1"><path d="M 2.625 6.132812 L 27.300781 6.132812 L 27.300781 13 L 2.625 13 Z M 2.625 6.132812 " clip-rule="nonzero"/></clipPath><clipPath id="id2"><path d="M 2.625 18 L 27.300781 18 L 27.300781 24.277344 L 2.625 24.277344 Z M 2.625 18 " clip-rule="nonzero"/></clipPath><clipPath id="id3"><path d="M 2.625 12 L 27.300781 12 L 27.300781 19 L 2.625 19 Z M 2.625 12 " clip-rule="nonzero"/></clipPath></defs><g clip-path="url(#id1)"><path fill="rgb(79.998779%, 0%, 0%)" d="M 24.550781 6.132812 L 5.375 6.132812 C 3.863281 6.132812 2.636719 7.382812 2.636719 8.925781 L 2.636719 12.066406 L 27.289062 12.066406 L 27.289062 8.925781 C 27.289062 7.382812 26.0625 6.132812 24.550781 6.132812 Z M 24.550781 6.132812 " fill-opacity="1" fill-rule="nonzero"/></g><g clip-path="url(#id2)"><path fill="rgb(0%, 39.99939%, 0%)" d="M 2.636719 21.488281 C 2.636719 23.027344 3.863281 24.277344 5.375 24.277344 L 24.550781 24.277344 C 26.0625 24.277344 27.289062 23.027344 27.289062 21.488281 L 27.289062 18.347656 L 2.636719 18.347656 Z M 2.636719 21.488281 " fill-opacity="1" fill-rule="nonzero"/></g><g clip-path="url(#id3)"><path fill="rgb(93.328857%, 93.328857%, 93.328857%)" d="M 2.636719 12.066406 L 27.289062 12.066406 L 27.289062 18.347656 L 2.636719 18.347656 Z M 2.636719 12.066406 " fill-opacity="1" fill-rule="nonzero"/></g><path fill="rgb(100%, 67.449951%, 19.999695%)" d="M 13.679688 17.617188 C 13.402344 17.699219 13.238281 17.425781 13.238281 17.425781 L 13.460938 17.328125 L 13.566406 16.976562 L 13.789062 17.300781 L 14.039062 17.300781 C 14.039062 17.300781 13.980469 17.53125 13.679688 17.617188 Z M 17.207031 17.921875 C 16.777344 17.792969 15.78125 17.617188 15.023438 17.617188 C 14.265625 17.617188 13.269531 17.792969 12.839844 17.921875 C 12.410156 18.054688 12.511719 18.472656 12.839844 18.34375 C 13.167969 18.210938 13.964844 18.082031 15.023438 18.082031 C 16.078125 18.082031 16.878906 18.210938 17.207031 18.34375 C 17.535156 18.472656 17.632812 18.054688 17.207031 17.921875 Z M 15.195312 17.136719 L 15.023438 16.847656 L 14.851562 17.136719 L 14.550781 17.269531 C 14.550781 17.269531 14.765625 17.515625 15.023438 17.515625 C 15.28125 17.515625 15.496094 17.269531 15.496094 17.269531 Z M 16.363281 17.617188 C 16.644531 17.699219 16.808594 17.425781 16.808594 17.425781 L 16.585938 17.328125 L 16.480469 16.976562 L 16.257812 17.300781 L 16.007812 17.300781 C 16.007812 17.300781 16.066406 17.53125 16.363281 17.617188 Z M 16.363281 17.617188 " fill-opacity="1" fill-rule="nonzero"/><path fill="rgb(100%, 67.449951%, 19.999695%)" d="M 18.003906 16.742188 C 17.933594 16.554688 17.757812 17.054688 17.277344 16.976562 C 16.734375 16.890625 16.621094 16.335938 16.621094 16.335938 C 16.621094 16.335938 16.195312 16.773438 15.75 16.570312 C 15.308594 16.367188 15.195312 16.078125 15.195312 15.757812 C 15.195312 15.4375 15.15625 15.199219 15.195312 15.074219 C 15.257812 14.871094 15.496094 14.722656 15.738281 14.957031 C 15.9375 14.667969 15.59375 14.054688 15.023438 14.054688 C 14.453125 14.054688 14.109375 14.667969 14.308594 14.957031 C 14.554688 14.722656 14.789062 14.871094 14.851562 15.074219 C 14.894531 15.199219 14.851562 15.4375 14.851562 15.757812 C 14.851562 16.078125 14.738281 16.367188 14.296875 16.570312 C 13.855469 16.773438 13.425781 16.335938 13.425781 16.335938 C 13.425781 16.335938 13.3125 16.890625 12.769531 16.976562 C 12.289062 17.054688 12.113281 16.554688 12.042969 16.742188 C 11.972656 16.929688 12.355469 17.484375 12.898438 17.304688 C 13.441406 17.125 13.511719 16.65625 13.511719 16.65625 C 13.511719 16.65625 13.792969 17.179688 14.441406 16.976562 C 14.929688 16.824219 15.023438 16.351562 15.023438 16.351562 C 15.023438 16.351562 15.121094 16.824219 15.609375 16.976562 C 16.257812 17.179688 16.535156 16.65625 16.535156 16.65625 C 16.535156 16.65625 16.609375 17.125 17.152344 17.304688 C 17.691406 17.484375 18.078125 16.925781 18.003906 16.742188 Z M 14.550781 14.578125 C 14.695312 14.269531 15.023438 14.316406 15.023438 14.316406 C 15.023438 14.316406 15.351562 14.269531 15.496094 14.578125 C 15.253906 14.605469 15.023438 14.796875 15.023438 14.796875 C 15.023438 14.796875 14.792969 14.609375 14.550781 14.578125 Z M 11.769531 15.273438 L 11.90625 15.699219 L 12.34375 15.699219 L 11.988281 15.960938 L 12.125 16.386719 L 11.769531 16.121094 L 11.414062 16.386719 L 11.550781 15.960938 L 11.195312 15.699219 L 11.632812 15.699219 Z M 12.199219 13.714844 L 12.332031 14.140625 L 12.773438 14.140625 L 12.417969 14.40625 L 12.554688 14.828125 L 12.199219 14.566406 L 11.84375 14.828125 L 11.976562 14.40625 L 11.625 14.140625 L 12.0625 14.140625 Z M 13.347656 12.464844 L 13.480469 12.890625 L 13.921875 12.890625 L 13.566406 13.15625 L 13.699219 13.578125 L 13.347656 13.316406 L 12.992188 13.578125 L 13.125 13.15625 L 12.773438 12.890625 L 13.210938 12.890625 Z M 15.023438 12.042969 L 15.15625 12.46875 L 15.597656 12.46875 L 15.242188 12.730469 L 15.378906 13.15625 L 15.023438 12.894531 L 14.667969 13.15625 L 14.804688 12.730469 L 14.449219 12.46875 L 14.886719 12.46875 Z M 18.15625 15.273438 L 18.019531 15.699219 L 17.582031 15.699219 L 17.933594 15.960938 L 17.800781 16.386719 L 18.15625 16.121094 L 18.507812 16.386719 L 18.375 15.960938 L 18.730469 15.699219 L 18.289062 15.699219 Z M 17.726562 13.714844 L 17.589844 14.140625 L 17.152344 14.140625 L 17.507812 14.40625 L 17.371094 14.828125 L 17.726562 14.566406 L 18.082031 14.828125 L 17.945312 14.40625 L 18.300781 14.140625 L 17.863281 14.140625 Z M 16.578125 12.464844 L 16.441406 12.890625 L 16.003906 12.890625 L 16.359375 13.15625 L 16.222656 13.578125 L 16.578125 13.316406 L 16.933594 13.578125 L 16.796875 13.15625 L 17.152344 12.890625 L 16.714844 12.890625 Z M 16.578125 12.464844 " fill-opacity="1" fill-rule="nonzero"/></svg>  